<svg xmlns="http://www.w3.org/2000/svg" width="512" height="474.667" viewBox=" 0 0 512 474.667">
    <title>Cruise ship</title>
    <path d="M509.073 436.177l-8.953-8.948c-18.745-18.745-48.136-17.62-68.365 2.61l-16.343 16.344c-6.776 6.776-16.333 9.103-25.027 6.989 13.636-22.896 45.636-77.15 56.214-99.464h13.589c5.52 0 10-4.479 10-10v-63.02c0-5.464-4.615-10.09-10.1-10-5.115.052-10.203.052-15.312-.152v-23.583c0-17.245-12.89-31.98-29.984-34.281l-9.75-1.308v-69.79c0-2.38-.849-4.678-2.391-6.491l-48.454-56.807a9.996 9.996 0 00-7.609-3.51h-59.49V10.77c0-5.52-4.478-10-10-10-5.52 0-10 4.48-10 10v63.994h-25.41V47.771c0-5.526-4.475-10-10-10-5.521 0-10 4.474-10 10v26.994h-56.5c-2.933 0-5.71 1.287-7.61 3.511l-48.453 56.812a10.005 10.005 0 00-2.39 6.49v69.953l-8.328 1.125c-17.074 2.313-29.948 17.052-29.948 34.281v23.547c-5.584.261-11.167.204-16.756.204-5.52 0-10 4.479-10 10v63.02c0 5.527 4.48 10 10 10h13.713c10.761 22.052 42.652 76.532 56.068 99.265-8.896 2.439-18.817.178-25.79-6.79l-18.949-18.954c-18.13-18.125-47.625-18.13-65.75-.005l-8.03 8.03-.033.032c-3.901 3.907-3.905 10.245-.005 14.151 3.433 3.427 9.62 4.328 14.152-.016.025-.025.057-.052.077-.077a.88.88 0 00.099-.099l7.881-7.881c10.328-10.328 27.14-10.323 37.468.005l18.948 18.953c17.885 17.88 47.88 17.866 65.75.006l18.963-18.959c10.178-10.181 27.266-10.197 37.464 0l9.474 9.475c8.073 8.073 15.609 16.463 26.666 20.396 16.751 5.957 35.954 1.692 48.558-10.912l16.349-16.35c10.839-10.838 28.459-14.229 40.079-2.609l18.952 18.953c17.854 17.855 47.865 17.886 65.75.006l16.344-16.35c12.364-12.369 29.224-13.462 40.078-2.609l8.953 8.953c3.907 3.902 10.235 3.902 14.141 0 3.9-3.906 3.9-10.24 0-14.145zm-58.885-102.469h-9.776c-16.48-1.339-32.152-6.287-48.39-8.692-3.782-.563-7.465 1.11-9.595 4.11a9.953 9.953 0 00-1.547 3.333c-1.359 5.353 1.885 10.792 7.235 12.145 12.208 3.093 24.568 5.62 37.025 7.432-10.525 20.366-33.29 59.579-51.375 89.959l-14.77-14.771c-19.38-19.364-49.766-15.99-68.364 2.615l-16.35 16.349a26.481 26.481 0 01-8.344 5.64V287.625c11.032 8.354 22.688 15.911 34.771 22.662 4.819 2.692 10.912.968 13.604-3.855 2.699-4.817.975-10.91-3.848-13.604-15.792-8.823-30.792-19.13-44.527-30.91v-40.642c53.334 37.355 117.891 68.912 184.246 69.407v43.025zm-25.412-86.75v21.725c-12.453-1.839-30.03-5.59-51.385-13.156-30.584-11.032-57.954-26.163-77.886-38.704l116.62 15.672c7.214.969 12.651 7.188 12.651 14.464zM126.735 145.26l43.062-50.495h172.176l43.068 50.495v63.417L257.271 191.5c-.834-.115-1.844-.161-2.678.005l-127.858 17.318zM88.459 246.937c0-7.27 5.432-13.484 12.629-14.458l115.303-15.619c-29.954 18.895-62.219 34.828-96.328 44.65-10.37 2.99-20.927 5.386-31.604 6.985zm-26.756 43.746c52.75-.412 103.917-21.047 149.005-47.038 12.057-6.948 23.828-14.405 35.23-22.385v40.688c-42.995 36.984-98.36 59.23-153.834 68.921-6.828 1.194-13.719 2.298-20.635 2.839h-9.766zm25.49 61.29c56.61-8.28 112.958-29.738 158.744-64.358V452.14a26.673 26.673 0 01-9.12-5.963l-18.948-18.953c-17.916-17.917-47.838-17.917-65.749 0l-14.219 14.219c-14.88-25.26-39.448-67.526-50.942-89.438.072-.005.156-.021.234-.032z" />
    <path d="M198.959 141.979H174.63c-5.522 0-10 4.48-10 10 0 5.526 4.478 10 10 10h24.328c5.52 0 10-4.474 10-10 0-5.52-4.48-10-10-10zM268.364 161.979c5.521 0 10-4.474 10-10 0-5.52-4.479-10-10-10h-24.328c-5.52 0-10 4.48-10 10 0 5.526 4.48 10 10 10zM313.443 161.979h24.328c5.521 0 10-4.474 10-10 0-5.52-4.479-10-10-10h-24.328c-5.522 0-10 4.48-10 10 0 5.526 4.478 10 10 10zM337.219 322.959c1.812 8.926 14.182 10.874 18.568 2.853 4.312-7.88-3.647-17.25-12.131-14.219-4.593 1.642-7.41 6.579-6.437 11.366z" />
</svg>