<svg xmlns="http://www.w3.org/2000/svg" width="126.675" height="130.243" viewBox="0 0 126.675 130.243">
    <title>Passanger</title>
    <path id="Path_108" data-name="Path 108" d="M502.842,183.989l-23.521-30.877a6.862,6.862,0,0,0-5.414-2.683H457a6.859,6.859,0,0,0-4.816,2L436.022,168.6a6.822,6.822,0,0,0-1.988,4.811v16.9a6.807,6.807,0,0,0,4.119,6.248l-9.526,12.723a7.458,7.458,0,0,0-2.771-4.646L414.935,196.1a7.522,7.522,0,0,0-10.547,1.294l-22.229,28.443a7.514,7.514,0,0,0,1.3,10.548l5.028,3.929a7.512,7.512,0,0,0,12.219,8.717,7.87,7.87,0,0,0,.643-.98l25.8-32.867a7.581,7.581,0,0,0,1.067-1.859l12.2-16.233c.139.008.277.021.418.021a6.811,6.811,0,0,0,6.806-6.8v-.656h0V176.224l4.618-4.616-.307,24.871-.006.437.008,0a7.9,7.9,0,0,0,1.423,4.626l3.825,5.441-24.245,32.137a8.033,8.033,0,1,0,12.826,9.675l21.13-28c9.138,12.994,19.54,27.789,19.54,27.789a8.033,8.033,0,1,0,13.139-9.244c.016.023-21.671-33.939-23.321-36.524V171.56l15.748,20.669a6.8,6.8,0,0,0,10.829-8.24ZM399.668,248.221a6.2,6.2,0,1,1,1.269-4.575A6.207,6.207,0,0,1,399.668,248.221Zm26.446-33.848s-17.787,22.659-23.831,30.352a7.263,7.263,0,0,0-.041-1.24,7.511,7.511,0,0,0-12.948-4.206l-5.03-3.929a6.2,6.2,0,0,1-1.07-8.7L405.421,198.2a6.21,6.21,0,0,1,8.705-1.069l10.92,8.537a6.192,6.192,0,0,1,1.068,8.7Zm2.6-3.171c.016-.2.023-.407.023-.609l10.284-13.733c.131.037.261.074.394.1Zm16.011,36.8a6.718,6.718,0,0,1-9.413,1.32A6.731,6.731,0,0,1,434,239.913l23.993-31.8c2.235,3.177,5.086,7.234,8.12,11.548Zm56.027-55.53a5.5,5.5,0,0,1-7.7-1.041L476.13,169.213l-1.181-1.546V203.2l.1.161,23.442,36.709a6.718,6.718,0,1,1-10.971,7.756l-33.078-47.037a6.646,6.646,0,0,1-1.178-4.258l.029-.458-.031-.015.321-26.049.018-1.613-1.141,1.141-5.949,5.95-.194.192v14.709a5.487,5.487,0,0,1-10.973-.077v-16.9a5.505,5.505,0,0,1,1.6-3.881l16.169-16.175A5.534,5.534,0,0,1,457,151.745h16.9a5.535,5.535,0,0,1,4.37,2.164L501.8,184.784A5.5,5.5,0,0,1,500.754,192.475Zm-35.381-42.89a12.417,12.417,0,1,0-12.418-12.417A12.429,12.429,0,0,0,465.373,149.585Zm0-23.521a11.1,11.1,0,1,1-11.1,11.1A11.117,11.117,0,0,1,465.373,126.064Z" transform="translate(-379.059 -123.252)" fill="none" stroke="#5ca4d9" stroke-miterlimit="10" stroke-width="3" />
</svg>
