<svg xmlns="http://www.w3.org/2000/svg" width="680" height="680"><path d="M287.432 485.719c7.35 0 13.308-5.964 13.308-13.307 0-7.35-5.959-13.308-13.308-13.308-7.344 0-13.307 5.959-13.307 13.308 0 7.343 5.963 13.307 13.307 13.307z"/><path d="M3.896 516.416l159.688 159.688c5.197 5.199 13.619 5.199 18.817 0l87.828-87.828c5.198-5.197 5.198-13.62 0-18.817l-3.901-3.896h191.823c16.849 0 32.928-6.318 45.322-17.828l161.444-151.303c15.452-14.35 20.572-37.15 12.734-56.73a51.228 51.228 0 00-31.739-29.743c-14.51-4.751-30.245-2.823-43.188 5.265-.084.052-35.839 23.516-35.839 23.516-.245-72.136-43.844-149.057-103.854-183.688a40.165 40.165 0 007.833-13.807c6.865-20.89-4.552-43.505-25.473-50.412-.656-.218-1.308-.412-1.964-.614l34.256-61.536a13.298 13.298 0 00.681-11.527 13.297 13.297 0 00-8.593-7.724c-24.563-7.14-50.088-10.765-75.875-10.765s-51.317 3.625-75.88 10.76a13.337 13.337 0 00-8.6 7.724 13.314 13.314 0 00.688 11.532l34.256 61.536c-.667.208-1.33.406-1.996.625-20.89 6.896-32.301 29.505-25.437 50.41a40.13 40.13 0 007.865 13.787c-60.907 35.147-103.896 112.855-103.896 184.298 0 1.948.047 3.869.11 5.776-23.834 6.505-45.99 18.354-64.626 34.666l-40.443 35.386-5.396-5.396c-5.197-5.198-13.62-5.198-18.817 0L3.896 497.599c-5.199 5.198-5.199 13.62 0 18.817zM341.77 30.849a245.82 245.82 0 0152.125-5.562c17.604 0 35.068 1.864 52.125 5.562l-29.657 53.266a162.279 162.279 0 00-44.937 0zm8.901 85.276c27.301-8.932 57.073-9.609 86.407-.01 6.984 2.306 10.79 9.854 8.5 16.817-1.724 5.245-6.402 8.808-11.824 9.125-26.244-8.344-53.495-8.36-79.728-.026h-.006c-5.464-.343-10.109-3.922-11.813-9.094-2.29-6.973 1.516-14.521 8.464-16.812zm7.359 52.635c23.073-8.312 46.98-8.51 70.114-.563C489.97 189.46 540.276 266.23 540.276 339.34c0 6.192-.39 12.098-1.161 17.62L475.15 398.92c-9.9-12.265-24.911-19.661-41.334-19.661h-26.614v-15.599c15.49-5.489 26.614-20.286 26.614-37.63 0-22.015-17.91-39.922-39.921-39.922-7.339 0-13.308-5.969-13.308-13.306 0-7.344 5.97-13.308 13.308-13.308 4.713 0 9.688 2.406 14.39 6.953 5.282 5.11 13.709 4.968 18.818-.308 5.11-5.28 4.97-13.708-.312-18.817-6.75-6.536-13.51-10.235-19.59-12.25v-15.5c0-7.354-5.957-13.308-13.306-13.308-7.355 0-13.308 5.954-13.308 13.308v15.594c-15.49 5.494-26.615 20.286-26.615 37.636 0 22.009 17.907 39.921 39.923 39.921 7.339 0 13.307 5.964 13.307 13.307 0 7.338-5.968 13.308-13.307 13.308-5.688 0-11.823-3.579-17.281-10.074-4.73-5.625-13.126-6.348-18.751-1.62-5.624 4.73-6.353 13.126-1.619 18.751 7.11 8.464 15.479 14.359 24.343 17.328v15.536h-4.432c-6.536 0-9.473-4.265-14.083-7.244-28.114-21.073-62.942-32.677-98.073-32.677-5.495 0-11 .281-16.479.838 0-.281-.01-.557-.01-.838 0-72.084 49.582-148.604 110.52-170.579zM173.907 399.807c25.005-21.895 57.134-33.854 90.093-33.854 29.412 0 58.568 9.714 82.093 27.35 3.396 1.989 12.85 12.572 30.058 12.572h57.666c15.147 0 26.615 12.313 26.615 26.614 0 14.672-11.943 26.615-26.615 26.615h-93.156c-7.349 0-13.306 5.953-13.306 13.308 0 7.348 5.957 13.307 13.306 13.307h93.156c29.344 0 53.23-23.88 53.23-53.23 0-3.052-.271-6.062-.782-9.025l130.678-85.74a24.72 24.72 0 0120.702-2.473 24.69 24.69 0 0115.292 14.342c3.844 9.584 1.432 20.319-6.177 27.38L485.323 528.276a39.814 39.814 0 01-27.172 10.672H239.713l-104.91-104.921zM101.13 438l140.874 140.87-69.016 69.01L32.12 507.01z"/></svg>