<svg xmlns="http://www.w3.org/2000/svg" width="512" height="488" viewBox="0 0 512 488">
    <title>Profit</title>
    <path d="M78.276 190.484L7.953 257.317c-10.188 9.652-10.63 25.798-.98 36a25.584 25.584 0 0018.496 7.954c6.536 0 12.75-2.474 17.51-6.974l66.74-63.193c3.36.87 6.88 1.333 10.51 1.333 14.006 0 26.422-6.906 34.047-17.484h140.432c7.61 7.698 18.172 12.484 29.828 12.484 23.13 0 41.948-18.822 41.948-41.953 0-.968-.047-1.927-.11-2.88l43.631-43.63a7.501 7.501 0 00-10.609-10.605l-37.693 37.694a42.276 42.276 0 00-14.042-15.558l98.454-98.448h14.953v14.64l-36.89 36.902a7.503 7.503 0 000 10.609 7.473 7.473 0 005.3 2.193c1.923 0 3.84-.729 5.309-2.193l28.473-28.49c3.975 8.913 12.907 15.142 23.276 15.142 14.043 0 25.464-11.423 25.464-25.464V26.588c0-14.041-11.421-25.463-25.464-25.463h-48.807c-14.041 0-25.464 11.422-25.464 25.463 0 10.287 6.131 19.157 14.928 23.172l-94.562 94.563a41.885 41.885 0 00-8.1-.792c-15.291 0-28.698 8.229-36.026 20.49h-135.75c-7.703-9.442-19.416-15.49-32.526-15.49-23.136 0-41.953 18.818-41.953 41.953zm-45.61 92.917a10.434 10.434 0 01-7.197 2.87c-2.906 0-5.61-1.156-7.6-3.26-3.967-4.199-3.79-10.839.396-14.803l63.782-60.38a42.144 42.144 0 0013.193 16.328zm87.563-65.964c-14.86 0-26.953-12.093-26.953-26.953 0-14.864 12.088-26.953 26.953-26.953 14.859 0 26.954 12.089 26.954 26.953 0 14.86-12.095 26.953-26.954 26.953zm40.859-17.484a41.7 41.7 0 001.095-9.469c0-3.973-.568-7.817-1.604-11.463h122.504a42.017 42.017 0 00-.499 6.463c0 5.084.905 9.953 2.572 14.47zm163.448 12.484c-14.864 0-26.952-12.093-26.952-26.953 0-14.864 12.088-26.953 26.952-26.953 14.86 0 26.948 12.089 26.948 26.953 0 14.86-12.088 26.953-26.948 26.953zM497 75.391c0 5.77-4.693 10.469-10.464 10.469-5.776 0-10.468-4.699-10.468-10.47V44.553a7.5 7.5 0 00-7.5-7.5h-30.839c-5.77 0-10.464-4.692-10.464-10.464 0-5.77 4.694-10.468 10.464-10.468h48.807c5.77 0 10.464 4.697 10.464 10.468zM98.604 324.615H16.683c-9.2 0-16.683 7.484-16.683 16.682v18.448c0 3.391 1.021 6.547 2.77 9.182A16.556 16.556 0 000 378.115v18.448c0 3.39 1.027 6.546 2.77 9.182A16.586 16.586 0 000 414.927v18.448c0 3.396 1.027 6.552 2.77 9.188A16.59 16.59 0 000 451.745v18.448c0 9.198 7.484 16.681 16.683 16.681h81.921c9.199 0 16.682-7.483 16.682-16.68v-18.449c0-3.39-1.026-6.548-2.77-9.182a16.613 16.613 0 002.77-9.188v-18.448a16.59 16.59 0 00-2.77-9.182 16.615 16.615 0 002.77-9.188V378.11c0-3.39-1.02-6.546-2.77-9.182a16.588 16.588 0 002.77-9.182v-18.448c0-9.198-7.483-16.682-16.682-16.682zM15 341.297c0-.928.755-1.682 1.683-1.682h81.921c.927 0 1.682.754 1.682 1.682v18.448c0 .927-.755 1.682-1.682 1.682H16.683A1.684 1.684 0 0115 359.745zm85.286 92.078c0 .932-.755 1.688-1.682 1.688H16.683A1.686 1.686 0 0115 433.375v-18.448c0-.927.755-1.682 1.683-1.682h81.921c.927 0 1.682.755 1.682 1.682zm0-36.812c0 .926-.755 1.682-1.682 1.682H16.683A1.685 1.685 0 0115 396.563v-18.448c0-.927.755-1.683 1.683-1.683.014 0 .03-.005.046-.005h81.828c.016 0 .031.005.047.005.927 0 1.682.756 1.682 1.683zm0 73.63c0 .927-.755 1.682-1.682 1.682H16.683A1.684 1.684 0 0115 470.193v-18.448c0-.928.755-1.682 1.683-1.682h81.921c.927 0 1.682.754 1.682 1.682z" />
    <path d="M230.839 250.973H148.92c-9.197 0-16.68 7.486-16.68 16.688v18.448c0 3.391 1.019 6.547 2.764 9.183a16.576 16.576 0 00-2.765 9.187v18.442c0 3.396 1.02 6.552 2.77 9.188a16.545 16.545 0 00-2.77 9.188v18.448c0 3.391 1.02 6.547 2.765 9.182a16.584 16.584 0 00-2.765 9.188v18.448c0 3.39 1.02 6.546 2.765 9.182a16.576 16.576 0 00-2.765 9.187v18.448c0 3.39 1.02 6.547 2.765 9.183a16.576 16.576 0 00-2.765 9.182v18.448c0 9.203 7.479 16.687 16.681 16.687h81.918c9.202 0 16.688-7.484 16.688-16.687v-18.448c0-3.39-1.027-6.548-2.772-9.182a16.59 16.59 0 002.772-9.188v-18.448c0-3.391-1.027-6.547-2.772-9.182a16.59 16.59 0 002.772-9.188v-18.442a16.59 16.59 0 00-2.772-9.188 16.58 16.58 0 002.772-9.187v-18.448c0-3.39-1.027-6.547-2.772-9.183a16.59 16.59 0 002.772-9.188v-18.448c0-3.39-1.027-6.546-2.772-9.181a16.59 16.59 0 002.772-9.188v-18.448c0-9.197-7.486-16.683-16.688-16.683zm-83.599 16.688c0-.932.75-1.688 1.681-1.688h81.918c.932 0 1.688.756 1.688 1.688v18.448c0 .927-.756 1.683-1.688 1.683H148.92a1.685 1.685 0 01-1.681-1.683zm85.287 128.902c0 .926-.756 1.682-1.688 1.682h-33.115c-4.14 0-7.5 3.353-7.5 7.5 0 4.14 3.36 7.5 7.5 7.5H230.839a1.69 1.69 0 011.688 1.682v18.448c0 .932-.756 1.688-1.688 1.688H148.92a1.682 1.682 0 01-1.681-1.688v-18.448c0-.927.75-1.682 1.681-1.682h13.767c4.14 0 7.5-3.36 7.5-7.5 0-4.147-3.36-7.5-7.5-7.5h-13.767a1.682 1.682 0 01-1.681-1.682v-18.448c0-.927.75-1.683 1.681-1.683.022 0 .043-.005.068-.005h81.782c.026 0 .046.005.068.005.932 0 1.688.756 1.688 1.683zm0-36.818c0 .927-.756 1.682-1.688 1.682H148.92a1.685 1.685 0 01-1.686-1.682v-18.448c0-.933.754-1.682 1.686-1.682.027 0 .058-.006.084-.006h81.75c.026 0 .057.006.084.006.926 0 1.688.749 1.688 1.682zm0-36.824c0 .934-.756 1.688-1.688 1.688H148.92a1.686 1.686 0 01-1.686-1.688V304.48c0-.932.754-1.687 1.686-1.687H230.84a1.69 1.69 0 011.688 1.687zm0 147.272c0 .927-.756 1.682-1.688 1.682H148.92a1.685 1.685 0 01-1.686-1.682v-18.448c0-.928.754-1.682 1.686-1.682H230.84a1.69 1.69 0 011.688 1.682zM363.079 250.979h-81.923c-9.197 0-16.683 7.485-16.683 16.682v18.448c0 3.391 1.022 6.547 2.772 9.183a16.552 16.552 0 00-2.772 9.187v18.448c0 3.39 1.022 6.546 2.772 9.182a16.557 16.557 0 00-2.772 9.188v18.448c0 3.391 1.022 6.547 2.772 9.182a16.562 16.562 0 00-2.772 9.188v18.448c0 3.39 1.022 6.546 2.772 9.182a16.553 16.553 0 00-2.772 9.187v18.448c0 3.39 1.022 6.547 2.772 9.183a16.557 16.557 0 00-2.772 9.186v18.448c0 9.199 7.486 16.683 16.683 16.683h81.923c9.197 0 16.681-7.484 16.681-16.683V451.75c0-3.394-1.02-6.546-2.77-9.186a16.54 16.54 0 002.77-9.183v-18.448c0-3.396-1.02-6.547-2.77-9.187a16.542 16.542 0 002.77-9.182v-18.448a16.56 16.56 0 00-2.77-9.188 16.533 16.533 0 002.77-9.182v-18.448c0-3.396-1.02-6.548-2.77-9.188a16.542 16.542 0 002.77-9.182v-18.448c0-3.396-1.02-6.547-2.77-9.187a16.542 16.542 0 002.77-9.183v-18.448c0-9.197-7.484-16.682-16.681-16.682zm-83.606 16.682c0-.926.756-1.682 1.683-1.682h81.923c.932 0 1.681.756 1.681 1.682v18.448c0 .927-.75 1.683-1.681 1.683h-81.923a1.686 1.686 0 01-1.683-1.683zm85.287 165.714c0 .932-.755 1.688-1.681 1.688h-81.923a1.687 1.687 0 01-1.683-1.688v-18.448c0-.927.756-1.682 1.683-1.682h81.923c.926 0 1.681.755 1.681 1.682zm0-36.812c0 .926-.755 1.682-1.681 1.682h-81.923a1.686 1.686 0 01-1.683-1.682v-18.448c0-.927.756-1.683 1.683-1.683.027 0 .047-.005.068-.005h81.787c.02 0 .046.005.068.005.926 0 1.681.756 1.681 1.683zm0-36.818c0 .927-.755 1.682-1.681 1.682h-81.923a1.685 1.685 0 01-1.683-1.682v-18.448c0-.933.756-1.682 1.683-1.682.021 0 .037-.006.057-.006h81.808c.02 0 .036.006.058.006.926 0 1.681.749 1.681 1.682zm0-36.818c0 .928-.755 1.682-1.681 1.682h-81.923a1.685 1.685 0 01-1.683-1.682v-18.448c0-.927.756-1.682 1.683-1.682.027 0 .052-.005.079-.005H363c.027 0 .052.005.079.005.926 0 1.681.755 1.681 1.682zm0 147.266c0 .927-.755 1.682-1.681 1.682h-81.923a1.685 1.685 0 01-1.683-1.682v-18.448c0-.928.756-1.682 1.683-1.682H363.079c.926 0 1.681.754 1.681 1.682zM495.312 177.344h-19.973a7.498 7.498 0 00-7.5 7.5c0 4.145 3.354 7.5 7.5 7.5h19.973c.933 0 1.688.755 1.688 1.687v18.442c0 .934-.755 1.688-1.688 1.688h-81.916a1.687 1.687 0 01-1.688-1.688v-18.442c0-.932.756-1.687 1.688-1.687h26.896c4.145 0 7.5-3.355 7.5-7.5 0-4.141-3.355-7.5-7.5-7.5h-26.896c-9.203 0-16.688 7.484-16.688 16.687v18.442c0 3.396 1.027 6.554 2.77 9.188a16.595 16.595 0 00-2.77 9.183v18.448c0 3.396 1.027 6.547 2.77 9.187a16.595 16.595 0 00-2.77 9.182v18.448c0 3.391 1.027 6.547 2.77 9.183a16.618 16.618 0 00-2.77 9.187v18.448c0 3.39 1.027 6.546 2.77 9.188a16.592 16.592 0 00-2.77 9.182v18.448c0 3.391 1.027 6.547 2.77 9.187a16.597 16.597 0 00-2.77 9.183v18.448c0 3.39 1.027 6.546 2.77 9.182a16.605 16.605 0 00-2.77 9.187v18.448c0 3.39 1.027 6.547 2.77 9.183a16.622 16.622 0 00-2.77 9.186v18.448c0 9.199 7.485 16.683 16.688 16.683h81.916c9.204 0 16.688-7.484 16.688-16.683V451.75c0-3.39-1.027-6.546-2.77-9.186a16.594 16.594 0 002.77-9.183v-18.448c0-3.396-1.027-6.547-2.77-9.187a16.596 16.596 0 002.77-9.182v-18.448c0-3.391-1.027-6.547-2.77-9.183a16.616 16.616 0 002.77-9.187v-18.448c0-3.39-1.027-6.548-2.77-9.182a16.626 16.626 0 002.77-9.188v-18.448c0-3.391-1.027-6.547-2.77-9.187a16.595 16.595 0 002.77-9.183v-18.448c0-3.39-1.027-6.546-2.77-9.182a16.592 16.592 0 002.77-9.187v-18.448c0-3.39-1.027-6.547-2.77-9.183a16.596 16.596 0 002.77-9.188v-18.442c0-9.203-7.484-16.687-16.688-16.687zM497 433.374c0 .933-.755 1.689-1.688 1.689h-81.916a1.688 1.688 0 01-1.688-1.688v-18.448c0-.927.756-1.682 1.688-1.682h81.916c.933 0 1.688.755 1.688 1.682zm0-36.811c0 .926-.755 1.682-1.688 1.682h-81.916a1.687 1.687 0 01-1.688-1.682v-18.448c0-.927.756-1.683 1.688-1.683.02 0 .041-.005.068-.005h81.781c.026 0 .047.005.067.005.933 0 1.688.756 1.688 1.683zm0-36.818c0 .927-.755 1.682-1.688 1.682h-81.916a1.686 1.686 0 01-1.688-1.682v-18.448c0-.933.756-1.682 1.688-1.682.016 0 .036-.006.057-.006h81.802c.021 0 .042.006.057.006.933 0 1.688.749 1.688 1.682zm0-36.818c0 .928-.755 1.682-1.688 1.682h-81.916a1.686 1.686 0 01-1.688-1.682v-18.448c0-.927.756-1.682 1.688-1.682.016 0 .036-.005.057-.005h81.802c.021 0 .042.005.057.005.933 0 1.688.755 1.688 1.682zm0-36.818c0 .927-.755 1.683-1.688 1.683h-81.916a1.687 1.687 0 01-1.688-1.683v-18.448c0-.926.756-1.682 1.688-1.682H495.312c.933 0 1.688.756 1.688 1.682zm0-36.817c0 .932-.755 1.687-1.688 1.687h-81.916a1.687 1.687 0 01-1.688-1.687v-18.448c0-.927.756-1.683 1.688-1.683H495.312c.933 0 1.688.756 1.688 1.683zm0 220.901c0 .927-.755 1.682-1.688 1.682h-81.916a1.686 1.686 0 01-1.688-1.682v-18.448c0-.928.756-1.682 1.688-1.682H495.312c.933 0 1.688.754 1.688 1.682z" />
</svg>