<?xml version="1.0" standalone="no"?>
<!DOCTYPE svg PUBLIC "-//W3C//DTD SVG 20010904//EN"
 "http://www.w3.org/TR/2001/REC-SVG-20010904/DTD/svg10.dtd">
<svg version="1.0" xmlns="http://www.w3.org/2000/svg"
 width="100.000000pt" height="100.000000pt" viewBox="0 0 100.000000 100.000000"
 preserveAspectRatio="xMidYMid meet">
<metadata>
Created by potrace 1.11, written by Peter Selinger 2001-2013
</metadata>
<g transform="translate(0.000000,100.000000) scale(0.100000,-0.100000)"
fill="#000000" stroke="none">
<path d="M140 924 c0 -4 10 -15 23 -26 12 -11 63 -58 114 -105 51 -47 114
-105 140 -129 51 -47 53 -48 148 -28 17 4 38 6 48 6 22 -1 22 2 -5 30 -13 13
-41 45 -64 70 -58 65 -162 134 -238 157 -69 21 -166 36 -166 25z"/>
<path d="M18 885 c-3 -4 0 -34 8 -67 14 -60 46 -128 92 -198 36 -54 96 -186
133 -292 22 -63 39 -98 49 -98 11 0 11 -3 2 -12 -9 -9 -9 -15 0 -26 7 -8 14
-23 15 -35 2 -11 6 -23 8 -26 3 -3 29 17 58 44 l52 50 -52 -54 c-42 -44 -58
-54 -86 -55 -22 -1 -33 -5 -30 -12 8 -21 46 -24 101 -8 49 15 59 14 116 -1 70
-19 123 -16 176 8 54 25 84 27 130 6 23 -10 52 -19 64 -18 20 1 20 1 1 8 -11
3 -38 16 -60 28 -43 23 -123 25 -148 5 -25 -21 -95 -26 -122 -8 -45 30 -32 43
58 55 143 20 157 23 157 31 0 4 -15 20 -34 36 -18 16 -82 74 -141 129 -59 55
-113 101 -120 103 -22 5 -121 -46 -152 -78 l-29 -30 -28 88 c-28 87 -160 367
-194 410 -10 13 -21 20 -24 17z m552 -669 c0 -2 -7 -7 -16 -10 -8 -3 -12 -2
-9 4 6 10 25 14 25 6z"/>
<path d="M578 869 c-18 -10 -25 -48 -10 -50 53 -4 74 -10 110 -28 l43 -22 -5
27 c-6 34 -20 49 -60 68 -39 18 -54 19 -78 5z"/>
<path d="M445 848 c17 -12 104 -96 195 -188 144 -144 276 -254 333 -276 29
-11 -4 66 -37 89 -18 13 -32 33 -34 47 -4 29 -56 77 -92 86 -79 18 -103 44
-96 102 2 20 -2 39 -11 48 -34 34 -137 58 -145 34 -1 -5 -16 3 -33 18 -39 35
-81 62 -97 62 -7 0 1 -10 17 -22z"/>
<path d="M120 766 c0 -2 15 -35 33 -72 19 -38 44 -94 57 -125 l23 -56 53 26
c29 14 53 30 53 34 1 9 -9 19 -114 112 -38 33 -74 66 -81 73 -12 12 -24 16
-24 8z"/>
<path d="M785 662 c-9 -10 -5 -43 5 -37 12 7 90 -34 90 -47 0 -5 5 -6 10 -3
31 19 -19 86 -67 90 -18 1 -35 0 -38 -3z"/>
<path d="M645 539 c-33 -10 -62 -18 -64 -18 -5 -1 33 -38 169 -161 58 -52 118
-107 134 -122 28 -25 32 -26 57 -13 21 11 30 27 42 75 14 57 14 62 -1 66 -45
14 -222 136 -222 153 0 4 -12 14 -27 22 -25 14 -34 14 -88 -2z"/>
</g>
</svg>
