<svg xmlns="http://www.w3.org/2000/svg" viewBox="0 0 512 512" fill="currentColor"><path d="M485.052 43.61h-87.579V13.484c0-5.618-4.527-10.172-10.105-10.172s-10.105 4.554-10.105 10.172v30.134H134.656V13.484c0-5.618-4.527-10.172-10.105-10.172s-10.105 4.554-10.105 10.172v30.134H26.948C12.12 43.618 0 55.832 0 70.747v410.812c0 14.922 12.12 27.129 26.948 27.129h458.105c14.814 0 26.947-12.214 26.947-27.129V70.747c0-14.922-12.133-27.137-26.948-27.137zm6.737 437.949c0 3.672-3.093 6.784-6.737 6.784H26.948c-3.658 0-6.737-3.112-6.737-6.784V165.151h471.578v316.408zm.001-336.755H20.211V70.747c0-3.679 3.078-6.784 6.737-6.784h87.498v37.713c0 5.618 4.527 10.172 10.105 10.172s10.105-4.554 10.105-10.172V63.963h242.607v37.713c0 5.618 4.527 10.172 10.105 10.172s10.105-4.554 10.105-10.172V63.963h87.579c3.645 0 6.737 3.106 6.737 6.784v74.057z"/><path d="M232.555 232.336h-47.144c-5.578 0-10.105 4.561-10.105 10.179s4.527 10.179 10.105 10.179h47.144c5.578 0 10.105-4.561 10.105-10.179s-4.527-10.179-10.105-10.179zm94.316 0h-47.158c-5.578 0-10.105 4.561-10.105 10.179s4.527 10.179 10.105 10.179h47.158c5.578 0 10.105-4.561 10.105-10.179s-4.527-10.179-10.105-10.179zm94.315 0h-47.158c-5.578 0-10.105 4.561-10.105 10.179s4.527 10.179 10.105 10.179h47.158c5.578 0 10.105-4.561 10.105-10.179s-4.526-10.179-10.105-10.179zm-188.631 60.632h-47.144c-5.578 0-10.105 4.561-10.105 10.179s4.527 10.179 10.105 10.179h47.144c5.578 0 10.105-4.561 10.105-10.179s-4.527-10.179-10.105-10.179zm94.316 0h-47.158c-5.578 0-10.105 4.561-10.105 10.179s4.527 10.179 10.105 10.179h47.158c5.578 0 10.105-4.561 10.105-10.179s-4.527-10.179-10.105-10.179zm94.315 0h-47.158c-5.578 0-10.105 4.561-10.105 10.179s4.527 10.179 10.105 10.179h47.158c5.578 0 10.105-4.561 10.105-10.179s-4.526-10.179-10.105-10.179zm-289.676 0H84.352c-5.578 0-10.105 4.561-10.105 10.179s4.527 10.179 10.105 10.179h47.158c5.565 0 10.105-4.561 10.105-10.179-.001-5.618-4.534-10.179-10.105-10.179zm101.045 60.638h-47.144c-5.578 0-10.105 4.554-10.105 10.172s4.527 10.179 10.105 10.179h47.144c5.578 0 10.105-4.561 10.105-10.179.001-5.618-4.527-10.172-10.105-10.172zm94.316 0h-47.158c-5.578 0-10.105 4.554-10.105 10.172s4.527 10.179 10.105 10.179h47.158c5.578 0 10.105-4.561 10.105-10.179s-4.527-10.172-10.105-10.172zm94.315 0h-47.158c-5.578 0-10.105 4.554-10.105 10.172s4.527 10.179 10.105 10.179h47.158c5.578 0 10.105-4.561 10.105-10.179.001-5.618-4.526-10.172-10.105-10.172zm-289.676 0H84.352c-5.578 0-10.105 4.554-10.105 10.172s4.527 10.179 10.105 10.179h47.158c5.565 0 10.105-4.561 10.105-10.179.001-5.618-4.534-10.172-10.105-10.172zm0 60.632H84.352c-5.578 0-10.105 4.554-10.105 10.172s4.527 10.179 10.105 10.179h47.158c5.565 0 10.105-4.561 10.105-10.179-.001-5.618-4.534-10.172-10.105-10.172zm94.309 0h-47.144c-5.578 0-10.105 4.554-10.105 10.172s4.527 10.179 10.105 10.179h47.144c5.578 0 10.105-4.561 10.105-10.179s-4.527-10.172-10.105-10.172zm94.315 0h-47.158c-5.578 0-10.105 4.554-10.105 10.172s4.527 10.179 10.105 10.179h47.158c5.578 0 10.105-4.561 10.105-10.179.001-5.618-4.527-10.172-10.105-10.172z"/></svg>