<svg xmlns="http://www.w3.org/2000/svg" baseProfile="tiny" version="1.2" viewBox="0 0 1401 104" fill="currentColor"><path d="M115.8 92.5c0 .2.6.3 1.3.3.7 0 1.7-.1 2.2-.3.5-.1-.1-.3-1.3-.3s-2.2.1-2.2.3zm42.9-2.5c8 0 15.9 0 23.9.1 7.9.1 13.3 0 12.2-.1-1.5-.2-76.6-1-78.9-.8-.7 0-1.4.1-2.1.1-4.4.2-3.1.2 7.7.5 11.9.2 18.7.3 37.2.2zm-18.1-4.2c2.6-.2 2.5-.2-.7-.2-2.3 0-4.7 0-7 .2-3.4.2-3.4.2.7.2 2.2 0 5.4-.1 7-.2zm-.4 1.6c12.2.1 22.5.3 22.9.4.8.2 16.2.1 17.3-.1 1.3-.2-1.1-.4-4.9-.4-2.2 0-6-.1-8.3-.1-16.3-.3-39.3-.4-44.2-.2-3.3.1 2.7.2 17.2.4zm-36.9 1.3c-.7 0-1.7.1-2.2.3-.5.1.1.3 1.3.3s2.2-.1 2.2-.3c0-.1-.5-.2-1.3-.3zm1-1.2c-1 .1-.2.1 1.7.2 1.9 0 2.7 0 1.8-.1-1.1-.2-2.3-.2-3.5-.1zm84.1 9.9c-1.1.1-.8.1.8.2 1.5 0 2.3 0 1.8-.1-.4-.1-1.6-.1-2.6-.1zm10.3-4.7c-4.9-.3-42.1-.7-42.1-.5 0 .1 10.3.3 22.8.5s21.2.2 19.3 0zm-121.4-4c2.8.2 2.8.2 0 .4-1.8.1.7.2 7 .3 9.3.1 9.5.1 3.5-.2-12.3-.6-13.3-.7-10.5-.5zm67 1.9c-1.4.1-.6.1 1.7.2 2.3 0 3.4 0 2.5-.1-.9-.1-2.8-.1-4.2-.1zm-18.6.3c-3.4.2-3.3.2 1 .3 2.5 0 4.9 0 5.4-.2.9-.3-1.4-.4-6.4-.1zm5.5.9c-.8 0-1.4.1-1.4.3 0 .2.6.3 1.4.3.8 0 1.4-.1 1.4-.3 0-.2-.6-.3-1.4-.3zm-57.8-6c-.5-.1-1.7-.1-2.7 0-1.1.1-.8.1.8.2 1.6-.1 2.4-.1 1.9-.2zM0 91.3v.2c1.3 0 1.8-.1 1-.1-.4-.1-.7-.1-1-.1zm46.1-78.2c-.5-.1-1.7-.1-2.7-.1-1.1.1-.8.1.8.2 1.5.1 2.4 0 1.9-.1zm131.5-1.9c-1.4.1-.6.1 1.7.2 2.3 0 3.4 0 2.5-.1-1-.2-2.9-.2-4.2-.1zM48.5 12.4c2.3-.1 3.6 0 3.6.2s.6.3 1.4.3c.8 0 1.4-.2 1.4-.4 0-.5-7.7-.7-9.2-.2-.5.1.4.1 2.8.1zm52.7 75l-14.7-.2c-17.5-.2-29.8-.1-28.8.3.4.1 3.7.2 7.3.2 7.1-.1 14.3-.1 21.4-.1l14.8-.2zM58 86.2c-1.3-.1-3.9-.1-5.6-.1-1.7 0-.7.1 2.4.2 3.1 0 4.6-.1 3.2-.1zm15.4 2.9c-.5-.1-1.7-.1-2.7-.1-1.1.1-.8.1.8.2 1.5 0 2.3 0 1.9-.1zM201.6 99c-5.9.5-6.6.9-1.5.9 5.1.1 2.3.5-9.6 1.4-6.7.5-14.4 1.4-17.3 1.8-6.5 1.1-5 1.1 3.2.1 3.5-.4 8.3-.9 10.6-1 2.4-.1 4-.3 3.6-.5-1.2-.4 10.8-1 26-1.4 15.8-.4 55-.3 139.8.2 24.7.2 50.3.3 56.9.2 6.6-.1-36.9-.6-96.9-1.2-106.9-1-108.9-1-114.8-.5zM22.8 87.9c-4.8 0-12.5-.3-17.1-.5-1.2-.1-3.1-.1-5.6-.2v.8c8.3.1 14.2.3 14.8.4 1.1.2 3.3.2 4.8.2 1.5-.1 5.2-.1 8.2-.1 3.2 0 5-.1 4.5-.2-.6-.2-4.9-.3-9.6-.4zm5.9 2.3c-.8 0-1.4.1-1.4.3 0 .2.6.3 1.4.3.8 0 1.4-.1 1.4-.3 0-.2-.6-.3-1.4-.3zm13.8-2c-1.6-.1-3.3-.1-4.9 0-1.4.1-.2.1 2.5.2 2.6-.1 3.8-.1 2.4-.2zm4.5-.3c-.8 0-1.1.1-.6.3.5.2 1.1.3 1.5.3.3 0 .6-.1.6-.3 0-.2-.7-.3-1.5-.3zm268.8-2.1c-2.1-.1-4.2-.1-6.3-.1-1.7 0-.3.1 3.2.2 3.4 0 4.8 0 3.1-.1zM303 91.7c-1.7-.1-4.9-.1-7-.1-2.1 0-.7.1 3.1.2 3.9 0 5.6 0 3.9-.1zm15 2c-1.7.2-1.3.3 1.7.3 2.1 0 4.2-.1 4.7-.2 1.1-.4-3.6-.4-6.4-.1zm-7.3 0c-1.1.1-.8.1.8.2 1.5 0 2.3 0 1.8-.1-.3-.1-1.5-.1-2.6-.1zm15.4-1.7c-.5-.1-1.7-.1-2.7 0-1.1.1-.8.1.8.2 1.6-.1 2.4-.1 1.9-.2zm-126-1.8zm122.2 0c0 .1 1.1.2 2.5.1s9.1-.1 17.2-.2c8.1 0 15.7-.1 16.9-.3 1.4-.1-.9-.2-6.3-.2-4.6 0-13.3.1-19.3.1-6 .2-10.9.4-11 .5zm22.4 4c0 .1 2.4.2 5.3.2 8.2-.1 8.8-.2 1.4-.3-3.7-.1-6.7 0-6.7.1zm90.7 6.6c-.5-.1-1.7-.1-2.7-.1-1.1.1-.8.1.8.2s2.4 0 1.9-.1zM414 90.1c-2.1 0-.7.1 3.1.2 3.9 0 5.6 0 3.9-.1-1.7-.1-4.8-.1-7-.1zm-4.9 1.3c-1 .1-.2.1 1.8.2 1.9 0 2.7 0 1.8-.1-1.3-.1-2.5-.1-3.6-.1zm-146.6 2.3c.6.2 33.2.4 34.3.2.3-.1.3-.1 0-.2-1.1-.2-34.9-.2-34.3 0zM369.7 91c-.5-.1-1.7-.1-2.7-.1-1.1.1-.8.1.8.2 1.5.1 2.4 0 1.9-.1zm-63.6 2.9c2.8-.2 2.8-.2 0-.2-1.9 0-3.8.1-5.6.2-2.8.2-2.8.2 0 .2 1.8 0 3.7-.1 5.6-.2zM412 87.3c-1.6-.1-3.3-.1-4.9-.1-1.4.1-.3.1 2.5.2 2.6 0 3.7 0 2.4-.1zm-169.1 6l5.6.3c3.1.1 5.8.3 6 .3.2 0 .4-.1.4-.2 0-.2-2.7-.3-6-.3l-6-.1zm94.5-2.3c-1 .1-.2.1 1.7.2 1.9 0 2.7 0 1.8-.1-1.1-.2-2.3-.2-3.5-.1zm-43.9-3.2c-20.5 0-50 .2-56.8.4-6.4.2-7.1.3-4.2.4 3.2.2 3.3.2.7.4-2.3.2-2.4.2-.7.5 1.1.1 3.3.2 4.9.2 1.6-.1 4.5-.1 6.6-.2 2.1 0 5.2-.2 6.9-.4 5-.5 21.5-.6 41.9-.4 16.6.2 18.6.2 17-.2-1.5-.4-1-.4 3.7-.4 3 0 7-.1 9-.2 3.5-.2 3.5-.2-.7-.3-5.2-.1-11.3-.1-16.9 0-2.4.2-7.5.2-11.4.2zM152.7 8.5c1.5-.1 5-.2 7.7-.2s10.3-.2 16.9-.3c15-.4 26.4-.7 30.9-.8 2.5 0 2.1-.1-1.4-.2-2.7 0-10.3 0-16.8.2-6.6.2-12.9.2-14.2.1-1.2-.1-4.1 0-6.4.2-2.2.2-6 .4-8.3.3-2.3 0-5.8.1-7.7.4-2.3.3-2.6.4-.7.3zM395.4 89c4.7-.1 2-.2-10.5-.2-34.1-.1-50.6-.1-51.3.1-1.1.2 55 .3 61.8.1zM340 88c2-.1 3.9-.2 5.9-.1 1.7 0 3.4-.1 3.8-.3.6-.3-.8-.4-6.2-.4-3.8 0-7 .1-7 .2s1.1.2 2.5.2c2.1 0 2.2.1.3.3-1.7.2-1.6.2.7.1zm-139.9 2.2c0 .1 1.9.1 4.3.2 2.4 0 4-.1 3.6-.2-.7-.3-7.8-.2-7.9 0zm28.3-1c-.8 0-1.8.1-2.3.3-.5.1-.2.3.5.3.8 0 1.8-.1 2.3-.3.5-.2.3-.3-.5-.3zm-15.9.2c-1.3-.1-3.9-.1-5.6-.1-1.7 0-.7.1 2.4.2 3.1 0 4.5 0 3.2-.1zm188.3-1.9c-1.6-.1-3.3-.1-4.9-.1-1.4.1-.3.1 2.5.2 2.6 0 3.7 0 2.4-.1zm-16.1 6.8c-1.3-.1-1.8-.1-1.3.1s1.4.3 2.2.3c1.9 0 1.5-.2-.9-.4zm-28.6-6.4c0-.1-.6-.2-1.4-.3-.8-.1-1.4-.1-1.4.1s.6.3 1.4.3c.8 0 1.4 0 1.4-.1zm39.7 2.3c-1.4.1-.6.1 1.7.2 2.3 0 3.4 0 2.5-.1-1-.1-2.9-.2-4.2-.1zm-11.3 1c-1.2-.1-2.3-.1-3.5 0-1 .1-.2.1 1.8.2 1.9-.1 2.6-.1 1.7-.2zM370 94.5c1.9 0 2.7 0 1.8-.1-1.2-.1-2.3-.1-3.5 0-1 0-.2.1 1.7.1zm14.2-6.8c0-.2-23.7-.3-25.2-.1-.3.1 5.2.1 12.3.2 7.1.2 12.9.1 12.9-.1zm975.5-53.3c-1.2-.1-2.3-.1-3.5 0-1 .1-.2.1 1.7.2 2-.1 2.8-.1 1.8-.2zM1080 2.7c.5.2 1.5.3 2.2.3.7 0 1.3-.1 1.3-.3 0-.2-1-.3-2.2-.3-1.2 0-1.8.2-1.3.3zm-7.2 1c-2 0-3.1.1-2.6.2 1.4.5 7.2.4 9.3-.1 1.7-.4 1.6-.4-.6-.3-1.5.2-4.2.3-6.1.2zm-1.1 5.6c-1 .1-.2.1 1.8.2 1.9 0 2.7 0 1.8-.1-1.2-.1-2.4-.1-3.6-.1zm27.8.5c3.7 0 6.4 0 5.9-.1-1.1-.2-10.8-.3-11.9-.1-.5.1 2.2.2 6 .2zm15.1-.3c-1.2-.1-2.3-.1-3.5 0-1 .1-.2.1 1.8.2 1.9 0 2.6-.1 1.7-.2zm-63.9-7.1c14.5.1 26 .2 25.7.1-1.4-.3-50.2-.9-51.1-.7-.6.2 8.2.4 25.4.6zm45.8.3c-2.1-.1-4.2-.1-6.3-.1-1.7 0-.3.1 3.2.2 3.4 0 4.9 0 3.1-.1zm-46.3 6.6c1.5 0 2.3 0 1.8-.1-.5-.1-1.7-.1-2.7 0-1.1 0-.7.1.9.1zm-47.5-6c-2.4.2-2.2.2 1.4.2 2.3 0 5.8 0 7.7-.1 3.2-.2 3.1-.2-1.4-.2-2.6-.1-6.1 0-7.7.1zm20.2-1.3c.7-.1-7.2-.3-25.4-.5-17.1-.2-71.7-.4-72.5-.2-.5.1 21.2.3 48.1.5 27 .2 49.4.3 49.8.2zM911.1 1c.5-.1-4.5-.2-11.2-.2-6.7 0-12.7.1-13.3.2-.6.1 4.5.2 11.2.2 6.7 0 12.7-.1 13.3-.2zm214.7 8.6c-1.2-.1-2.3-.1-3.5 0-1 .1-.2.1 1.8.2 1.9 0 2.7-.1 1.7-.2zM1055 7c-1.1.1-.8.1.8.2 1.5 0 2.3 0 1.8-.1-.3-.2-1.5-.2-2.6-.1zm7.4-3.1c0-.5-29.7-1.1-41.4-.8-4.1.1 0 .2 14.7.5 11.2.2 21.8.4 23.5.5 1.8 0 3.2 0 3.2-.2zm1.6 5.5c5.3.1 4.8-.1-1.4-.4-2.9-.1-4.3-.1-3.8.1.4.2 2.8.3 5.2.3zm99.8-1.6c-1.4.1-.3.1 2.5.2 2.7 0 3.8 0 2.5-.1-1.7-.1-3.4-.2-5-.1zm107 4.1c.5.2 1.5.3 2.3.3.8 0 1-.1.5-.3-.5-.2-1.5-.3-2.3-.3-.7 0-1 .1-.5.3zm.8-2.4c0-.1-1.3-.2-2.8-.3-1.5-.1-2.8-.1-2.8.1 0 .1 1.3.3 2.8.3 1.5 0 2.8 0 2.8-.1zm-19.1 1.6c.3 0 1-.1 1.5-.3.5-.1.2-.3-.6-.3s-1.5.1-1.5.3c0 .2.2.3.6.3zM429.4 91.6c-3.7 0-.7.1 6.7.2 7.3.1 10.3.1 6.7 0-3.7-.1-9.7-.2-13.4-.2zm896.4-75.8c-1.6-.1-3.3-.1-4.9-.1-1.4.1-.2.1 2.5.2s3.8 0 2.4-.1zm-90.1-7c-1.8-.4-19.5-.8-21.8-.5-1.1.1 1.1.3 5.8.4 15.5.3 17.3.3 16 .1zm-70.6 1.4c37.1.4 81.7 1.3 85.4 1.7 2.7.3 4.2.4 4.2.1 0-.3-7.1-1-12.8-1.1-2.6-.1-10.3-.3-17-.6-6.8-.2-13.1-.4-14-.3-1.6.1-43.4-.1-70.4-.3-6.9-.1-12.2 0-11.7.1.2 0 16.6.2 36.3.4zm167.7 6c-.5-.1-1.7-.1-2.7 0-1.1.1-.8.1.8.2 1.5-.1 2.4-.1 1.9-.2zm-440.6-5c0 .1 1.3.2 2.8.1 1.5-.1 2.8-.2 2.8-.2 0-.1-1.3-.1-2.8-.1-1.5 0-2.8.1-2.8.2zM1172 3.9c0-.1-6.8-.3-15.1-.3-9.2-.1-13.7-.1-11.6.1 4.1.2 26.7.5 26.7.2zm-32.3-.6c0-.2-2.2-.3-4.8-.3-2.7 0-5.2.1-5.7.2-.5.2 1.4.3 4.8.3 3.1.1 5.7 0 5.7-.2zm51-3.2c-1.2-.1-2.3-.1-3.5 0-1 .1-.2.1 1.8.2 1.9-.1 2.7-.1 1.7-.2zm2.4 4.3c1.9 0 2.7 0 1.8-.1-1.2-.1-2.3-.1-3.5 0-1.1 0-.3.1 1.7.1zm-14.5-.3c-.5-.1-1.7-.1-2.7-.1-1.1.1-.8.1.8.2s2.4 0 1.9-.1zm-783.7 6.5c.7 0 1.7-.1 2.2-.3.5-.1-.1-.3-1.3-.3s-2.2.1-2.2.3c-.1.1.5.3 1.3.3zm96 1.8c3.6 0 6.6-.1 6.6-.2 0-.2-11.1-.2-12.5 0-.4.1 2.3.1 5.9.2zm.6-1.9c-1.6-.1-3.3-.1-4.9 0-1.4.1-.3.1 2.5.2 2.7 0 3.8-.1 2.4-.2zm-28.8 1.8c3.4.3 13.1.2 16.5-.1 1.3-.1-2-.3-8.8-.3-11.3-.1-13.1 0-7.7.4zm-4.4 1c5.4-.3 6.7-.7 2-.6-2.3 0-4.4.2-4.7.4-.5.3.2.3 2.7.2zm34.2 1.6c-3-.2-17.8.2-21.6.6-2.5.3-2.7.3 15.3-.2 6.5-.1 8.3-.3 6.3-.4zm-39.4 1.5c-.5-.2-3-.3-5.7-.3s-4.8.1-4.8.2c0 .2 2.6.3 5.7.3 3.4.1 5.3 0 4.8-.2zm23.3-5.7c1.8-.3-4.1-.6-11.8-.6-4.7 0-13.6-.1-19.7-.1-10.9-.1-13.5.3-4.3.6 5.1.1 34.9.2 35.8.1zM355.7 6.1c.4-.1-3.6-.1-8.9-.1-5.3 0-10 .1-10.5.2-1 .2 18.3.1 19.4-.1zm80 11.5c-14.6 0-25 .1-25.9.3-1.2.2 0 .3 4.7.2 15.5-.2 26.6-.2 56.1 0 17.4.1 31.9.1 32.3 0 1-.2-4.4-1-5.6-.8-1.4.1-33.7.3-61.6.3zM293.5 7.7c-.5-.1-1.7-.1-2.7 0-1.1.1-.8.1.8.2 1.5-.1 2.4-.1 1.9-.2zm-16.1-2.1c-1.2-.1-2.3-.1-3.5 0-1 .1-.2.1 1.8.2 1.9-.1 2.7-.1 1.7-.2zm92.2.5c-2.6-.3-11-.4-11-.1 0 .1 2.4.3 5.3.4 6.1.2 8.3.1 5.7-.3zm55.8 5.7c-.5-.1-1.7-.1-2.7 0-1.1.1-.8.1.8.2 1.6 0 2.4-.1 1.9-.2zM215.2 9.5c0-.2-.3-.3-.6-.3s-1 .1-1.5.3c-.5.1-.2.3.6.3s1.5-.1 1.5-.3zm192.4 2c0-.2-3.6-.3-8.4-.4-4.6 0-8.4 0-8.4.1s3.8.3 8.4.4c4.9.2 8.4.1 8.4-.1zm417.6-.6c-.9-.1-2.8-.1-4.2-.1-1.4.1-.6.1 1.7.2s3.4 0 2.5-.1zm-137 1.7c-.4-.1-4.1 0-8.3.2l-7.6.3h7.4c7.2 0 10-.2 8.5-.5zm-28.1-.3c-1.3-.1-3.9-.1-5.6-.1-1.7 0-.7.1 2.4.2 3.1 0 4.5 0 3.2-.1zm91.3-2.1c-.5-.1-1.7-.1-2.7-.1-1.1.1-.8.1.8.2 1.5.1 2.4 0 1.9-.1zm-90.3 3c3.1 0 4.5 0 3.2-.1-1.3-.1-3.9-.1-5.6-.1-1.8.1-.7.2 2.4.2zM816.4 11c0-.1-1.3-.2-2.8-.1-1.5.1-2.5.2-2.1.4.9.3 4.9.1 4.9-.3zm54-10.1c-.9-.1-2.8-.1-4.2-.1-1.4.1-.6.1 1.7.2 2.4 0 3.5 0 2.5-.1zm8.5.1c-.9-.1-2.8-.1-4.2-.1-1.4.1-.6.1 1.7.2 2.3 0 3.4 0 2.5-.1zM602.4 13.1c-.5-.1-1.7-.1-2.7-.1-1.1.1-.8.1.8.2 1.5 0 2.4 0 1.9-.1zm31.6-.3c-1.2-.1-2.3-.1-3.5 0-1 .1-.2.1 1.8.2 1.9 0 2.7-.1 1.7-.2zm-133.1-.3c.3 0 1-.1 1.5-.3.5-.1.2-.3-.6-.3s-1.5.1-1.5.3c0 .1.2.3.6.3zm13.8-.3c-.9-.1-2.8-.1-4.2-.1-1.4.1-.6.1 1.7.2 2.3 0 3.4-.1 2.5-.1zm52.2.1c1 .3 3.8.3 3.7 0-.1-.1-.1-.4-.1-.7 0-.4-.2-.4-2.3-.1-1.2.3-1.8.6-1.3.8zm40.7 1c.3 0 1-.1 1.5-.3.5-.1.2-.3-.6-.3s-1.5.1-1.5.3c0 .2.3.3.6.3zm8.9-.3c-.5-.1-1.7-.1-2.7-.1-1.1.1-.8.1.8.2 1.5 0 2.3-.1 1.9-.1zm573.6 6.4c-.6.1-3.3 0-6-.1-3.4-.2-6.5-.1-10.2.1l-5.3.4 10.2.1c17.5.1 17.6.1 14.8-.2-1.3-.3-2.9-.4-3.5-.3zm-934.7-.3c-1.1.1-.8.1.8.2 1.5 0 2.3 0 1.8-.1-.4-.1-1.6-.1-2.6-.1zm675.9 70.7c1.9-.1.3-.2-4.9-.3-4.2 0-6.1 0-4.2.1 1.9.1 4.1.3 4.8.4.7.1 2.9.3 4.9.3h3.6l-3.5-.2c-3.2-.1-3.3-.1-.7-.3zm401.1-9.8c-1.1.1-.8.1.8.2 1.5 0 2.3 0 1.8-.1-.3-.2-1.5-.2-2.6-.1zm-45.5 4.4c.5.2 1.1.3 1.5.3.3 0 .6-.1.6-.3 0-.2-.7-.3-1.5-.3s-1.1.1-.6.3zm2.5-11c-1.9.2-1.9.2 0 .3 1.2 0 3.4-.1 4.9-.2 2.8-.2 2.8-.2 0-.3-1.6-.1-3.8 0-4.9.2zm24.5-.1c-.5.1-.2.3.6.3s1.5-.1 1.5-.3c0-.2-.3-.3-.6-.3-.3.1-1 .2-1.5.3zm-8.7 0c-1.4.1-.6.1 1.7.2 2.3 0 3.4 0 2.5-.1-1-.1-2.8-.1-4.2-.1zM290.6 14.2c2.4 0 4.5-.1 4.5-.2 0-.2-6.6-.2-8.3.1-.3 0 1.4.1 3.8.1z"/><path d="M1368.1 48.3c-12.5-.3-24.5-1.3-19.6-1.6 2.5-.2 5-.3 7.5-.6 4-.3 4.3-.4 2.1-.6-1.4-.1-4.4-.3-6.6-.3-2.5 0-3.8-.2-3.4-.4.4-.2 4.4-.3 13.8-.2 7.7.1 13.6 0 14.2-.1 1.1-.3-9.2-1.5-15.8-1.8-2.6-.1-7.2-.4-10.3-.7-4.7-.4-5.2-.6-3.1-.8 4.4-.4 2.7-.8-3.2-.7-6.3.1-8-.4-2.1-.6 3.8-.2 4.1-.3 2.2-.9-.9-.3-.5-.5 1.1-.7 1.3-.2 2-.4 1.5-.5-.7-.2-22.1-.8-43.4-1.2-11.6-.3-23.9-.8-24.7-1-.4-.1-1.9-.3-3.4-.3-3.5 0-4.8-.5-2.7-1 1-.2 4.2-.4 8-.3 7.3.1 7.9-.6.7-.8-5.8-.2-5.7-.7.1-.6h4.6l-3.5-.4c-2.2-.2-3.4-.5-3-.8.4-.4 2-.5 7.8-.4h7.3l-6.7-.5c-6.4-.5-9.3-1-4.2-.8 1.4.1 7.3.2 13.2.4 9.6.2 10.7.2 10.5-.2-.2-.4 1-.5 8.5-.3 4.8.1 9.5.1 10.5 0 3.1-.3-6.7-.8-23.1-1.1-11.9-.2-15.1-.4-15.1-.7 0-.3-1.5-.4-4.3-.4-3.6 0-4.2-.1-3.5-.6.7-.4-.3-.6-4.7-1-3.1-.3-6.2-.7-6.9-1-1.3-.5-4.8-.5-53.1-1-30.3-.3-55.8-.4-61.5-.3-10 .2-46.9 0-49.3-.2-.7-.1-5.7-.2-11.1-.3-5.4-.1-11.4-.2-13.3-.3-1.9-.1-8.6-.1-14.8 0-6.2.1-21.4.2-33.7.2-12.4 0-25.6.1-29.5.1-11.8.2-18 .2-67.4-.2-26.3-.2-50.9-.3-54.8-.3h-29.4c-12.4 0-23.2 0-24.2.2-1 .1-2.5.2-3.4.1-3.1-.4-41.7-.9-76.5-.9-42.9-.1-58.2-.1-99.7-.3-21-.1-38.6 0-50.1.2-9.8.2-20.3.3-23.4.3-3 0-10.8.1-17.3.2-6.5.2-18.1.3-25.8.3-16.6 0-25.4.1-30 .3-2 .1-4.3-.1-5.8-.3-2.5-.5-10.6-.4-9.1.1.4.1.1.3-.7.4-.8.1-1.4 0-1.4-.3 0-.4-2.9-.6-4.8-.3-.6.1-2.4.2-4.1.2-4.3 0-18.6.2-38.6.4-11.1.2-17.9.2-19 0-2.2-.4-14-.4-22.1 0-3.5.1-10 .3-14.4.3-6.8.1-8.1 0-8.1-.4 0-.2-.6-.5-1.4-.5-.8 0-1.4.1-1.4.3 0 .2-1.1.2-2.5.1-5.8-.4-6.6-.4-6.3-.1.4.4-2 .4-2.8 0-.4-.2-3.2-.3-11.5-.1-10.7.2-16.5.1-8-.2 2.4-.1 4.3-.3 4.3-.4 0-.3-18.4-.2-20.3.1-.7.1-3.1.2-5.2.2-2.9 0-3.7-.1-3.1-.4.5-.2.1-.4-.7-.4-.9 0-1.6-.1-1.5-.2 0-.2 8.5-.8 10-.7.5 0 1.8-.1 3-.3 2.4-.4 13.6-.4 50.2-.2 36.2.2 93.7.1 113.8-.2 34.3-.5 58.6-.7 136.3-1 9.7 0 28.3-.1 41.4-.1 13.1 0 27.3-.2 31.5-.4 4.2-.2 16.2-.4 26.7-.4 25.9-.1 53.3-.4 77.9-.7 3 0 4.9 0 4.2.2-1.5.3-17.6.5-41 .7-19.9.1-30.2.6-12.3.5 6.2 0 16.3-.1 22.5-.2 6.2-.1 21.4-.2 33.7-.4 12.4-.1 23.7-.2 25.3-.3 1.5 0 7.2-.1 12.6-.1 5.4 0 12.4-.2 15.5-.3 5.4-.2 39.9-.5 60.4-.6 18.2-.1 28-.1 44.3-.4 28.7-.4 38.8-.4 40.9.1 2.7.5 6.7.7 9.1.3 1.5-.2 2.5-.2 3.7 0 1 .2 2.2.2 3.2.1.9-.1 18-.2 38 0 42.5.2 41.8.2 49.1-.1 3.1-.1 15.7-.3 28.1-.3 37.5-.1 41-.2 37.9-.4-1.9-.2.2-.3 6.4-.3 7.2-.1 11.5 0 20.2.6 6 .4 11.3.6 11.8.5.4-.1-.6-.2-2.3-.3-5.1-.3-3.5-.7 2.2-.4 5.8.2 18.9 1.2 20 1.4 1.1.3 12.9.7 12.1.4-1-.3 13.5.1 15.2.4 2.2.4 5.4.3 4.5-.1-.6-.3.2-.4 2.6-.4 6.9.1 17.4.8 21.9 1.5s12.1 1.1 10.4.5c-.5-.2.5-.3 2.1-.3s2.6.2 2.1.3c-1.3.4 7.6.4 15.6 0 3.8-.2 8.8-.3 11.1-.3 3.6 0-7.7-.8-21.4-1.5-1.8-.1-2.8-.3-2.4-.4.5-.1 2.7-.2 5 0 2.4.1 4.2.1 4.2-.1 0-.3-4.7-.7-10.9-.7-2.5 0-4.6-.2-4.6-.3 0-.2-2-.3-4.6-.3-2.5 0-5.5-.2-6.7-.3-1.5-.2 1.1-.3 8.3-.2 12.3.1 12.6 0 .8-.4-4.6-.1-9.7-.3-11.2-.4-1.5-.1-5.5-.2-8.8-.2-3.3 0-6-.2-6-.4s.8-.3 1.8-.2c1 0 3.6.1 6 .1 4.1 0 4.1 0 .9-.3-1.8-.2-5.6-.3-8.4-.3-2.8 0-6-.1-7.2-.1-2-.1-46.6-.3-103.9-.6-13.5-.1-39.7-.2-58.3-.3-18.5-.1-44.1-.2-56.9-.1h-39.3c-28.7-.1-55.2 0-59.6.4-1.9.1-.5.2 4.1.1 10.5-.2 18.9 0 20.6.3 1.1.2-1.3.3-8.1.4-5.3 0-15.2.2-22.1.4-6.9.2-17.9.3-24.6.4-6.7.1-16.9.2-22.7.3-5.8.1-22.9.2-37.9.3-15.1.1-29.6.2-32.3.2l-12.6.2c-4.3.1-9.7.3-12.2.6-6.3.6-32.4 1.3-44.8 1.2h-14c-3.9.1-8.9.1-11.2.1l-23.9.3c-23.4.3-48.4.5-66.7.5-24.3 0-45.7.2-57.6.4-5 .1-17 .1-26.7.1s-26.1 0-36.5.1c-10.4.1-20.5.2-22.5.2-14-.2-36.5-.3-36.5 0 0 .2 3 .3 6.7.4l6.7.1-8.4.1c-4.6.1-18.9.1-31.6.1-12.7 0-28.2-.1-34.4-.1-6.2 0-26.4-.1-44.9-.2-18.7-.6-39.1-.6-45.4-.6-9.7 0-11.6 0-11.6-.4 0-.2.8-.5 1.8-.5 1-.1.3-.1-1.4-.2-1.7 0-3.2.1-3.2.2 0 .4-9.7 1.1-12.3.8-1.1-.1-2.8-.1-3.7 0-.9.1-5.7.1-10.8.1-6-.1-9.1 0-9.1.2 0 .5-.9.6-9.9 1-8.9.4-22.1.7-21 .5.4-.1 0-.3-.9-.5-2-.5-.3-.6 11.8-.6 5.2 0 10.3-.2 11.2-.3 1.4-.3.3-.3-6-.2-7.2.1-7.6.1-5.7-.3 1.8-.4 1.7-.4-1.4-.4-4.8.1-8.7.4-11.1.8-2.1.3-15.9 1.1-25.3 1.4-2.7.1-8.7.2-13.3.1-4.6 0-12.9 0-18.3.1s-13 .1-16.9-.1c-6.3-.3-5.8-.3 2.1-.4 1.2 0 2.9-.1 3.9-.2s2.4-.1 3.2 0c.8.1 1.4.1 1.4-.1 0-.3-11.6-.8-15.1-.6-5.5.3-45.8.3-47 0-1.1-.2 5.6-.4 20.3-.5 2 0 2.9-.4 1.1-.4-9.9-.2-12.7-.3-13.4-.1-.4.1-2.6.2-4.9.2-5.3-.1-5.5-.8-.2-.9 27.1-.8 67.6-1.2 93.1-.8 19 .2 85.6.6 96.2.5 3.5 0 7-.1 10.5-.3 4.4-.2 3.8-.2-5.6-.4-6.7-.1-9.8-.2-8.4-.4 3.9-.4 80.9-.6 84.2-.3 1.1.1 3.9.1 6.3 0s11.3-.1 19.8 0c9.8.1 16.5.1 18.3-.1 2.3-.2 1.2-.3-7.1-.4-5.4-.1-10.6-.2-11.3-.4-1-.2-2.7-.2-5.5 0-2.2.1-6.3.2-9 0-2.7-.1-14.5-.1-26.1 0-11.6.1-29.3.1-39.3 0-10-.1-23.4-.1-29.8 0-16.3.2-37 .2-37-.1 0-.1-1.7-.1-3.9.1-3 .3-6.8.2-16.4 0-6.9-.2-13.1-.3-13.8-.2-1.3.1-5.3-.5-5.2-.8 0-.2 4.7-.5 7-.4.4 0 3.1-.2 6-.4 2.9-.1 11.9-.3 20.3-.3 9 0 16.3-.2 18.1-.4 3-.4 23.8-.7 54.6-.9 20.8-.1 43.4-.3 55.5-.5l9.1-.1-7-.1-7-.1 6.3-.3c5.5-.2 3.3-.3-16.8-.4-12.7-.1-28.2 0-34.4.1-19.6.5-21.8.5-21.8.1 0-.3-2.2-.4-8.1-.4-11.7 0-21.8.2-24.1.5-1.5.2-2.1.2-2.6-.1-.3-.2-2-.4-3.6-.4-2.2 0-2.5 0-1.2.2 2.7.4-2.3.5-6.8.2-2.1-.1-2.5-.2-1.1-.2 1.3 0 2.7-.1 3-.2 1-.3-16.5-.3-19.9 0-1.6.2-13 .4-25.2.5-21.8.2-41.6.7-24.3.6 20-.1 48.3.1 46.3.3-4.6.5-49.5 1.3-82.9 1.4-23.2.1-41.7.3-43.4.5-.7.1-4.7.2-8.9.2-4.1 0-14.1.3-22.1.6-8.1.3-21.2.6-29.2.6-10.1 0-14.5.1-14.5.4 0 .4-4.6.6-12.7.5-4.6 0-5.7-.1-4.2-.3 1.8-.2 1.8-.3-.3-.3-5.2-.1-1.9-1 4.2-1.2 2.5-.1 4.6-.3 4.6-.5 0-.5-8-.6-17.4-.2-3.5.1-7.1.3-10.6.4v62.9c9.1-.1 20.8-.2 26.4-.3 7-.1 14-.1 21.1 0 9.9.1 10.2.1 5.3.4-3 .1-5.3.4-5.3.6 0 .3 2.1.4 12.3.4 27.9-.1 58.6.1 57.2.4-2.3.4-24.3 1.1-37.3 1.2-7.7 0-15.5.2-23.2.3-6.2.2-15 .4-19.7.5-4.6.1-14.4.4-21.8.6-5.6.2-10.6.3-15 .4v2.8h2.2c32.8.3 66.2.5 74.1.5 7.9 0 14.4.1 14.4.3 0 .1 3.7.2 8.3.2 4.6 0 11 0 14.4.1 3.4.1 12.7.2 20.8.3 8.1.1 14.3.2 13.7.3-.6.1-.3.4.5.6 1.8.4 2.1.4 6.5.3 3.7-.2 4.3-.6.8-.6-1.3 0-1.9-.1-1.5-.2.5-.1 10.5-.1 22.4-.1 11.8.1 29.4.1 39 0 9.7-.1 26.1-.1 36.5-.2 23.3-.1 51.9-.2 78-.3 10.8-.1 37.4 0 59 .2s41.2.2 43.5.1c6.6-.3 70.9.1 70.9.5 0 .2 1.7.3 5.3.2 7.5-.2 86 .5 86 .7 0 .1-3.2.2-7 .1-3.9-.1-7.7 0-8.6.2-1.1.2 2.2.3 11.6.4 14.3.1 21.1-.2 12.4-.6-4.7-.2-4.6-.2 1.7-.2 3.6 0 8.2.2 10.1.3 1.9.2 3.7.2 4 .1.5-.2 9.8-.3 37.7-.4 11.4 0 15.2 0 17 .3 2.9.5 4.2.5 3.3 0-.6-.3 3-.4 22.9-.1 26.9.3 24.6.6-3.1.4-12.3-.1-17.6-.1-16.2.1 1.2.2 15.2.4 33 .6 38.4.4 108.9 1.4 116.8 1.7 4.2.2 5.6.3 5.1.6-.6.3.7.4 5 .4 4.4 0 5.6 0 5-.3-.6-.3 1.4-.4 11.6-.3 6.8.1 15.3 0 18.7-.1 3.5-.1 8.2-.3 10.5-.3 2.3 0-3.8-.1-13.7-.2-15.1-.1-17.6-.2-16.3-.5 1.3-.3 10.1-.3 47.4.1 25.2.3 48.6.6 52.1.8 5.4.2 48.5 1 82.4 1.5 5.6.1 10.5.2 11.1.4 1.2.2-12.5.2-31.7-.1-25.1-.4-64.5-.6-58.3-.3 4.1.2 4.1.2-1 .2-2.9 0-5.6-.2-6.1-.3-.5-.2-1.3-.2-1.8-.1-1.1.3-16.4.8-18.9.6-.9-.1-5.8-.2-10.8-.4-7.2-.2-8.2-.2-4.9.1 4.6.3 10.3.5 84.2 1.6 27.8.4 51.5.9 52.7 1 1.2.1-20.6-.1-48.5-.4-27.8-.3-53.7-.4-57.6-.4-8.6.2 121.8 1.8 157.3 2 14.8.1 23.8 0 21.8-.1-2.3-.1-4.7-.2-7-.2-8.7 0-50.9-.6-50.1-.8.5-.1 24.8 0 54 .3 29.1.3 62.9.5 75 .5 12.1 0 32.6.3 45.6.6 29.1.7 79 .6 77-.1-.5-.2-.1-.5.9-.7 1.4-.3 1.2-.4-1.2-.4-1.6 0-4.5.1-6.5.2-3.9.3-4 .2-2.7-.4.5-.3 2.7-.4 5.3-.4 4.1 0 4 0-1.2-.2-6.3-.3-5.6-.4 8-.9 11.1-.4 15.6-.9 12.5-1.4-1.7-.2-1.7-.3 0-.7 1.8-.4 1.8-.4-.8-.3-12.3.8-34.5 1.5-34.4 1.1 0-.1 2.7-.3 6-.4 8.1-.3 12.3-.7 12.3-1.2 0-.2 1.5-.4 3.4-.3 1.9 0 5.2-.1 7.4-.2 3.9-.3 12.3-.4 21.2-.4 3.7 0 4.4-.1 3.8-.5-.6-.4.1-.5 3.5-.4 2.3 0 4.7-.1 5.2-.3.7-.2.3-.3-1.2-.2-1.2.1-6.8.2-12.4.2-7.8.1-9.9 0-9.1-.2.6-.2 2.2-.4 3.6-.5 2.2-.1 2.3-.2.7-.7-1.7-.5-2.5-.5-16.4 0-12.2.4-16.5.5-26.5.2-10.4-.3-11.5-.3-8.4-.6 3.1-.2 2.6-.3-4.6-.4-7.9-.1-8.1-.1-7.2-.8 1.2-.9-.1-.9-6.6.2-5.3.9-8.3 1.1-8.3.7 0-.1-3.8-.2-8.4-.2-8.9 0-11.8-.4-3.8-.6 2.5-.1 10.1-.3 16.9-.6 9.9-.4 12.3-.6 12.3-1 0-.3.7-.5 2.1-.3 1.2.1 2.1.1 2.1-.1 0-.1-4.7-.3-10.5-.4-5.8-.1-10.5-.2-10.5-.3 0-.3 14-.9 25.7-1.2 8.7-.2 19.9-.7 22.4-1.1.5-.1-1.6-.2-4.8-.2-3.2 0-6-.2-6.3-.4-.5-.3 10.7-1.2 18.2-1.5 2.1-.1 3.9-.3 3.9-.4 0-.1 1.2-.2 2.7-.2 1.5 0 3.7-.1 4.8-.4 1.2-.2 3.7-.4 5.6-.4 1.9 0 4-.1 4.5-.3.5-.2 2.9-.5 5.4-.8 2.5-.3 3.2-.4 1.6-.4-15.3.7-33.7.7-50.4.1-5.8-.2-7.9-.2-7.3 0 .6.2-.7.3-3.5.3-3.8 0-4.2-.1-2.7-.4 1.5-.3.3-.4-9.8-.4-8.7 0-11.4-.1-10.9-.3.3-.2 1.3-.3 2.1-.3s2-.1 2.6-.2c.6-.1-.2-.2-1.6-.2-2.4 0-2.4-.1.6-.5 1.8-.3 4.5-.5 5.8-.5 1.4 0 4.6-.1 7.2-.3l4.7-.4-8.1-.1c-4.4-.1-8-.2-7.9-.3.6-.8-.4-.9-5.8-.8-3.2.1-5.6 0-5.6-.1 0-.2-2.9-.2-7-.2-5.3.1-7 0-7-.3 0-.2-.8-.3-1.7-.3s-7.8.1-15.2.1c-7.4 0-17.9.1-23.4.2-7.9.1-10.8.1-13.7-.2-3.6-.4-3.5-.4 3.8-.5 4.1 0 14.1-.3 22.2-.5s17.3-.4 20.5-.4c3.2 0 8.9-.1 12.7-.3 3.8-.2 8.3-.3 10-.3 4.4 0 10.3-.5 10.3-.9 0-.6-2.2-.7-10-.5-4.1.1-9 .2-10.8.2-1.8 0-4.4 0-5.7.2-1.3.1-6.5.3-11.5.3s-11.9.2-15.3.3c-4.2.1-6.7.1-7.7-.1-.8-.2-3.1-.3-5-.3-3.3 0-3.3 0 .6.2 6.9.4-19 .7-41.2.5-10.6-.1-19.5-.1-19.9 0-1.2.3-12.7.4-12.6.1 0-.1 1.2-.2 2.7-.2 1.5 0 3.1-.1 3.6-.2s5.7-.2 11.7-.2c10.8.1 33.3-.5 37.9-1 1.8-.2.7-.2-4.6-.2-3.9.1-8.1.1-9.5.2-1.4.1-2.5 0-2.5-.2 0-.4 16.7-.5 22.2-.2 4.8.3 15.7-.1 15.7-.5 0-.2.7-.2 1.4-.1.8.1 5.6.1 10.7.1 5.1-.1 8.5-.2 7.6-.3-.9-.1-4.6-.1-8.1 0s-6.7.1-6.9.1c-.8-.2 35.1-1.5 39.2-1.4 3.8 0 7.5-.2 13.8-.8 2.2-.2 2.7-.4 1.4-.4-1.2 0-3.2-.3-4.5-.6-1.3-.3-3.5-.6-4.9-.6-4.1-.1.9-.4 7.7-.6 3.3-.1 6-.2 6-.4 0-.1 3.8-.2 8.5-.2s8.2 0 7.8-.2c-1.1-.3 7-.5 27.3-.5 9.7 0 21.4-.1 26-.2 4.6-.1 10-.2 12-.2s4.5-.1 5.6-.3c1.4-.2-.7-.3-7.1-.5-6.8-.2-8.3-.3-6-.4 6.1-.4 1.6-.6-10.5-.7-8.5 0-13.3-.2-15.8-.5-1.9-.2-2.8-.4-2-.4.8 0 1.5-.2 1.5-.5 0-.4-.8-.5-5.3-.4-3.4.1-5.3 0-5.3-.2s2.7-.3 6.9-.2c6.1.1 7 0 7.4-.5.5-.6.9-.6 20.5-.5 12.5.1 19.8 0 19.2-.1-.5-.2-2.4-.3-4.3-.3s-3.4-.2-3.4-.3c0-.5 4.7-.7 12.7-.7 4.2 0 9.6 0 11.9-.1l4.2-.1-9.8-.8 3.4-.3c2.7-.3 4.9-.2 10.9.1 7.5.4 11.6.2 11.7-.5.2-.7-15.5-1.7-32.7-2.2z"/><path d="M255.5 13.4c-1.1.1-.8.1.8.2 1.5 0 2.3 0 1.8-.1-.3-.2-1.6-.2-2.6-.1zm9 4.5c-1.4.1-.6.1 1.7.2 2.3 0 3.4 0 2.5-.1-1-.2-2.9-.2-4.2-.1zm39.3-4.1c-.3.3.4.5 2.3.5 3.3 0 9.8-.9 8.4-1.2-1.8-.3-10.2.2-10.7.7zm13.6-.2c.8 0 1.8-.1 2.3-.3.5-.1.2-.3-.5-.3-.8 0-1.8.1-2.3.3-.5.2-.3.3.5.3zm-41.2-.6c-.8.1-2.7.4-4.3.6-1.9.3-2.2.4-.8.4 1.1 0 3.1-.2 4.5-.4 1.6-.3 6.8-.5 14-.5 6.3-.1 11.8-.2 12.3-.3 1.4-.3-24-.1-25.7.2zM25.1 14.8c-1.1.1-.8.2.8.2 1.5 0 2.3 0 1.8-.1-.4-.1-1.6-.1-2.6-.1zm2.6 64c0 .3.9.6 2.1.6 2.4 0 2.5 0 1.3-.7-1.2-.6-3.4-.5-3.4.1zm1142.5 19.1c-.5-.1-1.7-.1-2.7 0-1.1.1-.8.1.8.2 1.6 0 2.4-.1 1.9-.2zm15.9-2.4zm-27-.4c.5-.1-5.3-.2-12.7-.3-9.1-.1-13.6 0-13.6.2 0 .3 24.6.4 26.3.1zm-181.6.4c-4.6-.1-6.8-.2-4.9 0 2.9.2 1.8.3-5.6.4-7.3.1-1.4.3 29.1.6 23.4.2 38.7.3 39.6.1.9-.2-7.1-.3-24.1-.5-14.1-.2-29.4-.5-34.1-.6zm199.8-.3c-.3.2 1.5.3 4.1.4 2.6.1 4.7 0 4.7-.1 0-.3-8.2-.6-8.8-.3zm-28.2 2.3c-7.6-.3-11.9-.3-14-.1-2.4.2.1.3 11 .4l14 .1-11-.4zm-59.2-.5c-7.7-.2-17.2-.3-21.1-.2l-7 .1 7 .2c3.9.1 9.2.2 11.9.2h14c8 0 7.3 0-4.8-.3zm211.8-.5c-2.1-.1-4.2-.1-6.3-.1-1.7 0-.3.1 3.2.2 3.4 0 4.8 0 3.1-.1zm-16.2-.2c-.5-.1-1.7-.1-2.7 0-1.1.1-.8.1.8.2 1.5 0 2.3-.1 1.9-.2zm72.2-5.3c-.8-.1-1.4-.1-1.4.1s.6.3 1.4.3c.8 0 1.4 0 1.4-.1 0 0-.7-.2-1.4-.3zm-148 4.8c-1.7 0-.7.1 2.4.2 3.1 0 4.5 0 3.2-.1-1.3-.1-3.9-.1-5.6-.1zm115.2-2.4c-1 .1-.2.1 1.8.2 1.9 0 2.7 0 1.8-.1-1.2-.1-2.4-.1-3.6-.1zm-92 2.4c-2.1 0-.4.1 3.9.2 4.2 0 6 0 3.9-.1-2.7-.1-5.3-.2-7.8-.1zm16.8.1c-2.1 0-.7.1 3.1.2 3.9 0 5.6 0 3.9-.1-1.7-.1-4.8-.1-7-.1zm35.4-69c1.9 0 2.7 0 1.8-.1-1.2-.1-2.3-.1-3.5 0-1 0-.2.1 1.7.1zM928.2 22zm0 0c.4-.1-6.8-.2-16-.3-24-.2-59.6-.3-59.6-.1 0 .2 74.5.6 75.6.4zm-91.4-.3c4.1.1 7.4 0 7.4-.2 0-.3-6.1-.4-11.2-.1-2.8.2-2 .2 3.8.3zm-13.9-1.1c-1.1.1-.8.1.8.2 1.5 0 2.3 0 1.8-.1-.4-.2-1.6-.2-2.6-.1zm46.3.2c-1.1.1-.8.1.8.2 1.5 0 2.3 0 1.8-.1-.4-.2-1.6-.2-2.6-.1zm75.7 1.3c-1.7 0-.3.1 3.2.2 3.5 0 4.9 0 3.2-.1-2.1-.1-4.3-.1-6.4-.1zm-53.4-2.2c-5.7-.3-43-.2-44.9.2-1.4.3.2.3 9.4.3 6.1 0 17.3 0 24.9.1 13.2.2 18.1-.1 10.6-.6zm-572 1.8c.6.2 1.7.2 3.2 0 1.3-.2 2.6-.4 3-.4.5-.1-4 0-6.7.1-.2 0 0 .1.5.3zm65 .4c-1.1.1-.8.1.8.2 1.5 0 2.3 0 1.8-.1-.4-.1-1.6-.1-2.6-.1zm577.6.4c2.4 0 4.3-.1 4.3-.2 0-.2-1.5-.3-3.4-.3s-3.8.1-4.3.2c-.6.1.8.3 3.4.3zm-501.4-1.3c0 .2 1.1.2 2.5.1s8.8-.2 16.5-.2c7.7 0 15.3-.1 16.9-.2 1.6-.1-3.1-.2-11.2-.2-17.9 0-24.7.2-24.7.5zm249.3-.1c9.6 0 16.5-.1 18.2-.3 2.4-.3 1.8-.3-5.6-.3-13.2.1-22.2.2-25.3.4-1.5.1 4.2.1 12.7.2zm69.3-.4c-1.1.1-.8.1.8.2 1.5 0 2.3 0 1.8-.1-.4-.2-1.6-.2-2.6-.1zm-318.6.5zm262.7-2.5c0-.1-1.9-.1-4.2-.2-2.3 0-4.2.1-4.2.2s1.9.2 4.2.2c2.3 0 4.2-.1 4.2-.2zm-522.9.1c-2.6.2-2 .2 3.2.3 5.2.1 5.7 0 3.2-.2-2.2-.2-4.3-.3-6.4-.1zm-39-.5c0 .1 1.9.3 4.3.3 2.8 0 3.6 0 2.5-.2-2.4-.3-6.8-.4-6.8-.1zm1134.6 8.8c-1.1.1-.8.1.8.2 1.5 0 2.3 0 1.8-.1-.4-.1-1.6-.2-2.6-.1zm-374 65.1c0 .1 1.5.3 3.4.3s3.1-.1 2.7-.2c-.9-.4-6-.4-6.1-.1zM190.8 18.9c.8 0 1.8-.1 2.3-.3.5-.1.2-.3-.5-.3-.8 0-1.8.1-2.3.3-.5.2-.2.3.5.3zm1083.8 6.2c1.4.5 3.6.1 2.6-.4-.5-.3-1.3-.3-2.2-.2-.8.2-1 .5-.4.6zM180.9 18.7c-1.1.1-.8.1.8.2 1.5 0 2.3 0 1.8-.1-.4-.2-1.6-.2-2.6-.1zm-6.8.1c0 .2.6.3 1.3.3.7 0 1.7-.1 2.2-.3.5-.1-.1-.3-1.3-.3s-2.2.1-2.2.3zm985.1-.9h-5.2l4.2.3c6.2.4 8 .4 7 .1-.4-.2-3.1-.4-6-.4zm119.5 2.1c-.9-.1-2.8-.1-4.2-.1-1.4.1-.6.1 1.7.2s3.4 0 2.5-.1zm-260.4 2.2c2.6.4 2.8.4 2.8 0 0-.2-1.1-.3-2.4-.3-2.1 0-2.2.1-.4.3zm-30.9-.1c-1.9 0-4.1.2-4.9.4-1.7.3 21.3.2 24.6-.1 4-.4-4.4-.8-15.4-.7-6.3 0-8.6.1-5.6.2 4 .1 4.2.1 1.3.2zm-10.1.3c-1.1.1-.8.1.8.2 1.5 0 2.3 0 1.8-.1-.3-.1-1.6-.1-2.6-.1zm302.8 1c-.4-.2-1.4-.4-2.1-.4-.7 0-1.3.2-1.3.4s.9.4 2.1.4c1.3 0 1.8-.1 1.3-.4zm-53.2-.5c-4.5-.1-6-.1-4.2 0 2.7.3 13 .5 11.8.3-.3 0-3.7-.2-7.6-.3zM578.4 90.1c-2.1-.1-4.2-.1-6.3-.1-1.7 0-.3.1 3.2.2 3.4.1 4.8 0 3.1-.1zm.6 2.3c-.5-.1-1.7-.1-2.7 0-1.1.1-.8.1.8.2 1.5-.1 2.3-.1 1.9-.2zm-4-5.7c-1.6-.2-3.3-.2-4.9-.1-2 .2-1.6.3 2.5.3 3.9.1 4.4 0 2.4-.2zm-.3 5.3c2.9-.1 3.3-.2 1.4-.3-1.4-.1-3.2 0-4 .1-.9.2 0 .3 2.6.2zm-3.8 1.9c0 .1 1.3.3 2.8.3 1.5 0 2.8 0 2.8-.1s-1.3-.2-2.8-.3c-1.5-.1-2.8-.1-2.8.1zm-13.3-7.1c.7.2 9.3.2 9.3 0 0-.1-2.2-.1-5-.2s-4.7 0-4.3.2zm-26.2-.2c-.5-.1-1.7-.1-2.7-.1-1.1.1-.8.1.8.2 1.5.1 2.4 0 1.9-.1zm368.1 3.3c-1.1.1-.8.1.8.2 1.5 0 2.3 0 1.8-.1-.4-.2-1.6-.2-2.6-.1zm-305.7 2.6c-1.2-.1-2.3-.1-3.5 0-1 .1-.2.1 1.8.2 1.8 0 2.6-.1 1.7-.2zm-154.7-7.2c1.8-.2 1.8-.3-.3-.3-1.3 0-2.8.1-3.3.2-1 .4.8.4 3.6.1zm171.1 8.3c0 .1 1.3.1 2.9.1 1.6 0 2.5-.1 2.1-.2-.7-.3-5-.2-5 .1zm-3.1-1c-1.6-.1-3.3-.1-4.9 0-1.4.1-.3.1 2.5.2 2.6 0 3.8-.1 2.4-.2zm-.7-.8c-1.2-.1-2.3-.1-3.5 0-1 .1-.2.1 1.8.2 1.9 0 2.7-.1 1.7-.2zm-17.7 1.8c-3.6.1-6.5.2-6.5.3 0 .3 3.3.3 11.9 0 7.7-.3 4.8-.4-5.4-.3zm-87.3-2.9c-.9.2 2.1.2 8.4.2 5.4 0 17.7-.1 27.4-.2 19.3-.1 33.4-.4 26-.5-8.4-.2-60.4.3-61.8.5zm103.8 2.7c-1.2 0-1.8.1-1.3.3.5.2 1.5.3 2.2.3.7 0 1.3-.1 1.3-.3 0-.2-1-.3-2.2-.3zm-149.1-1.8c-1.4.1-.6.1 1.7.2 2.3 0 3.4 0 2.5-.1-.9-.1-2.8-.1-4.2-.1zm35.9-6.1c-.4-.2-.8-.2-.9.2-.1.3.3.5.7.4.6-.1.6-.4.2-.6zM621.2 92c-1.3-.1-3.9-.1-5.6-.1-1.7 0-.7.1 2.4.2 3.1 0 4.5-.1 3.2-.1zm-135.1-4.8c-1.9.1-2.1.2-.7.2 1.2 0 3.1-.1 4.2-.2 2.6-.3.4-.3-3.5 0zm-16.6 13.6c2.7.4 4.2.4 4.2 0 0-.2-1.4-.3-3.2-.3-2.5 0-2.7.1-1 .3zm-3-15.2c-3.9-.2-9.2-.3-11.9-.3-4.4 0-4.3 0 1.4.2 4 .2 8 .3 11.9.3 5.3.1 5.2 0-1.4-.2zm91.6 6.3c-4.2.1-16.2 0-26.8-.1-16.1-.2-19.3-.1-20.1.2-.7.4.2.4 6.6.3 4.1 0 16.1-.1 26.8-.1s19.7-.1 20.2-.2c.6-.1-1.9-.2-6.7-.1zM458.6 89c-1.9.1-2.7.3-1.7.3 3.3.1 14.3-.4 14.3-.7.1-.2-7 0-12.6.4zm-3.5 11.7c-1 .1-.2.1 1.8.2 1.9 0 2.7 0 1.8-.1-1.2-.1-2.4-.1-3.6-.1zm58.2-6.5c0 .1 1.6.1 3.6.1s3.2-.1 2.8-.2c-.7-.2-6.4-.1-6.4.1zm37.8-.3c-.8 0-1.1.1-.6.3.5.2 1.1.3 1.5.3.3 0 .6-.1.6-.3 0-.1-.6-.3-1.5-.3zm-49.4.4c-1.7 0-.7.1 2.4.2 3.1 0 4.5 0 3.2-.1-1.3-.1-3.8-.1-5.6-.1zm-3.8-2.4zm4-5.6c-.5-.1-1.7-.1-2.7 0-1.1.1-.8.1.8.2 1.5 0 2.4-.1 1.9-.2zm3 5.6c0-.1-1.6-.1-3.5-.1s-3.5.1-3.5.2 1.6.2 3.5.1 3.5-.2 3.5-.2zm58.2-3.7c-1-.2-2.6-.2-4.8-.1-3.2.2-3.1.2 1.4.3 3.4.1 4.4 0 3.4-.2zm268.5 1.7c.5-.2-1.6-.3-5.5-.3-3.5 0-6.4.1-6.4.2 0 .2 2.5.3 5.5.3s5.9-.1 6.4-.2zm-78.3-.7c-1 .1-.2.1 1.7.2 1.9 0 2.7 0 1.8-.1-1.1-.2-2.3-.2-3.5-.1zm43.9.3c0-.3-3.8-.4-12.6-.1-6.2.2-6.1.2 3.2.3 5.4.1 9.4 0 9.4-.2zm-30.5-.2c-.9-.1-2.8-.1-4.2-.1-1.4.1-.6.1 1.7.2s3.4 0 2.5-.1zm-1.5 2.7c-1.7 0-3.5.1-4 .2-1.1.3 2.1.4 4.9.1 1.8-.2 1.6-.3-.9-.3zm69.4 3.8c-1 .1-.2.1 1.8.2 1.9 0 2.7 0 1.8-.1-1.3-.1-2.4-.1-3.6-.1zm-111.2-5.4c-10.5.1-9.8.1 9.8.3 11.6.1 25.8.4 31.6.6 4.9.2 9.8.4 14.7.5 2.3.1 16.9.2 32.3.4 23.1.2 29.1.2 33.6-.2 3-.2 6.5-.3 7.7-.3 1.2.1 3.8 0 5.7-.2 2.9-.3-6.2-.4-60.4-.9-35-.1-68.8-.3-75-.2zm145.4.2c0-.2-.9-.3-2.1-.3-1.2 0-2.1.1-2.1.3 0 .2.9.3 2.1.3 1.2-.1 2.1-.2 2.1-.3zm7.4-.1c-1.2-.1-2.3-.1-3.5 0-1 .1-.2.1 1.8.2 1.9-.1 2.6-.2 1.7-.2zM625 93.3c-3.8.2-3.9.2-.7.2 2.3 0 4.7 0 7-.1 2.8-.1 2.9-.2.7-.2-1.5-.1-4.7 0-7 .1z"/><path d="M904 89.8c0 .4 1.8.4 3.6.1.7-.1 2.9-.3 4.9-.3 1.9 0-1.3-.2-7.3-.2-5.9-.1-11.1-.1-11.5.1-.4.1 1.8.2 4.8.2 3.4-.2 5.5-.1 5.5.1zm-14.4 0c-1.3-.1-3.9-.1-5.6-.1-1.7 0-.7.1 2.4.2 3.1 0 4.5-.1 3.2-.1zm-142 2.6c-1 .1-.2.1 1.8.2 1.9 0 2.7 0 1.8-.1-1.3-.1-2.4-.1-3.6-.1zm169.6 0c-.5-.2-4-.3-7.8-.4-5-.1-6.9-.2-6.9-.5 0-.2 1.1-.5 2.5-.6 1.8-.1.5-.3-4.6-.5-3.9-.1-7.3-.2-7.6-.2-1.2.2 1.1.4 4.6.5 1.9 0 3.2.2 2.9.3-.3.1-1.7.2-3 .1-1.3 0-7.7 0-14.1.2-6.4.1-12.7.1-14.1 0-1.3-.1-3.3-.1-4.5.1-1.4.2 6.6.3 23.6.5 14.2.1 26.1.3 26.6.4 1.3.5 3.3.4 2.4.1zm-47.1 3.3c-1.5.1-2.8.2-2.8.2 0 .1 1.3.1 2.8.1 1.5 0 2.8-.1 2.8-.2s-1.3-.1-2.8-.1zm-207.7-6.8c1.9 0 2.7 0 1.8-.1-1.2-.1-2.3-.1-3.5 0-1.1 0-.3.1 1.7.1zm6-2.2c-.9-.1-2.8-.1-4.2-.1-1.4.1-.6.1 1.7.2 2.3 0 3.5-.1 2.5-.1zm70.7 5.7c-.5-.1-1.7-.1-2.7 0-1.1.1-.8.1.8.2 1.6-.1 2.4-.1 1.9-.2zm-70.4-2.2c-1.5-.3-51-.6-66.7-.4l-16.2.2 25.3.2c29.2.2 58.6.2 57.6 0zm52.6-1.2c-11-.3-35.5-.4-43.5-.2-12 .3-11.8.3-10.7.7.5.2 2.6.2 4.7.2 14.6-.3 29-.4 36.8-.3 5 0 10.1 0 11.3-.2 1.2 0 1.8-.2 1.4-.2zm-72.4 4c.5.2-.1.2-1.3.1s-2.2 0-2.2.2 1.8.3 6.5.2c3.6-.1 8.8-.1 11.6-.1h5.1l-5.6-.3c-8-.4-15.1-.5-14.1-.1zm3.1-1c-.5-.1-1.7-.1-2.7-.1-1.1.1-.8.1.8.2s2.4 0 1.9-.1zm-12.1-4.9c1.6-.2 1-.3-2.5-.3-2.7 0-4.3.1-3.8.2 1.1.4 3.6.4 6.3.1zm56.8 5.6c1 .3 14.3.5 15.3.2.4-.1-2.4-.3-6.2-.4-8-.3-10.2-.2-9.1.2zm-22-5.4c-.5-.1-1.7-.1-2.7 0-1.1.1-.8.1.8.2 1.5-.1 2.3-.1 1.9-.2zm4.1 5c-1.7 0-.7.1 2.4.2 3.1 0 4.5 0 3.2-.1-1.3-.1-3.9-.2-5.6-.1zm43.5.1c-2.5 0-.8.1 3.8.2 4.6 0 6.7 0 4.6-.1-2.1-.1-5.8-.1-8.4-.1zm-12.3-2c.3-.1-6.5-.2-15.1-.3-9.5-.1-15.7-.1-15.7.1 0 .3 29.2.5 30.8.2zm0 0z"/></svg>