<svg xmlns="http://www.w3.org/2000/svg" viewBox="0 0 300 300" fill="currentColor"><path d="M294.329 282.365c-6.428 5.225-15.875 4.311-21.102-2.117l-.085.013c-2.18-2.653-4.878-3.911-7.553-3.911h-.007c-2.681 0-5.384 1.268-7.612 3.991-.033.04-.065-.155-.1-.115-7.905 9.603-19.094 15.113-30.717 15.124h-.034c-11.648.001-22.866-5.466-30.783-15.102l-.109-.074c-1.938-2.359-4.24-3.678-6.571-4.006-.251-.026-.502.183-.753.183h-.007c-2.681 0-5.384 1.268-7.612 3.991-.031.038-.063-.159-.095-.121-7.905 9.606-19.097 15.12-30.723 15.13h-.032c-11.649.001-22.867-5.407-30.783-15.045l-.08.021c-2.232-2.719-4.932-3.976-7.606-3.976h-.007c-2.681 0-5.384 1.268-7.612 3.991-7.927 9.686-19.153 15-30.817 15.009h-.032c-11.649 0-22.867-5.402-30.783-15.039l-.109-.009c-2.221-2.704-4.92-3.952-7.595-3.952h-.003c-2.678 0-5.379 1.314-7.606 4.031-5.254 6.406-14.704 7.156-21.11 1.905-6.406-5.253-7.341-14.581-2.089-20.988 7.913-9.65 19.137-14.948 30.793-14.948h.016c11.649 0 22.868 5.281 30.783 14.917l.109-.114c2.22 2.704 4.919 4.196 7.594 4.196h.007c2.681-.002 5.384-1.268 7.612-3.991 7.927-9.686 19.153-15.009 30.817-15.009h.032c11.649 0 22.867 5.29 30.783 14.927l.08-.138c2.232 2.719 4.932 4.211 7.606 4.211h.007c2.206-.001 4.423-.911 6.383-2.789.307-.474.636-.816 1.002-1.264 7.913-9.65 19.137-14.948 30.792-14.948h.017c.805 0 1.607-.213 2.407-.161 10.875.631 21.214 5.807 28.644 14.853l.133.162c.32.394.615.799.889 1.214 1.965 1.892 4.195 2.932 6.413 2.932h.007c2.68-.002 5.383-1.385 7.61-4.107.032-.04.065.038.098-.001 7.906-9.604 19.098-14.892 30.722-14.892h.032c11.649 0 22.867 5.29 30.783 14.927l.133-.073c5.224 6.429 4.251 15.935-2.177 21.162zM76 101.559v22.792h148v-22.792c24-9.15 39.966-23.334 39.966-42.308 0-35.846-57.166-54.601-113.817-54.601S36.275 23.405 36.275 59.25C36.275 78.225 52 92.409 76 101.559zm209.608 64.791H224v-27H76v27H15.059C6.774 166.35 0 173.376 0 181.661v31.115c0 8.284 6.774 14.574 15.059 14.574h270.55c8.284 0 14.392-6.29 14.392-14.574v-31.115c-.001-8.285-6.108-15.311-14.393-15.311z"/></svg>